<svg viewBox="0 0 16 24" xmlns="http://www.w3.org/2000/svg">
  <path d="M8 4C9.5 4.02083 10.8438 4.38542 12.0312 5.09375C13.2396 5.80208 14.1979 6.76042 14.9062 7.96875C15.6146 9.15625 15.9792 10.5 16 12C15.9792 13.5 15.6146 14.8438 14.9062 16.0312C14.1979 17.2396 13.2396 18.1979 12.0312 18.9062C10.8438 19.6146 9.5 19.9792 8 20C6.5 19.9792 5.15625 19.6146 3.96875 18.9062C2.76042 18.1979 1.80208 17.2396 1.09375 16.0312C0.385417 14.8438 0.0208333 13.5 0 12C0.0208333 10.5 0.385417 9.15625 1.09375 7.96875C1.80208 6.76042 2.76042 5.80208 3.96875 5.09375C5.15625 4.38542 6.5 4.02083 8 4ZM8 18.5C9.83333 18.4583 11.3646 17.8229 12.5938 16.5938C13.8229 15.3646 14.4583 13.8333 14.5 12C14.4583 10.1667 13.8229 8.63542 12.5938 7.40625C11.3646 6.17708 9.83333 5.54167 8 5.5C6.16667 5.54167 4.63542 6.17708 3.40625 7.40625C2.17708 8.63542 1.54167 10.1667 1.5 12C1.54167 13.8333 2.17708 15.3646 3.40625 16.5938C4.63542 17.8229 6.16667 18.4583 8 18.5ZM9.25 14.5C9.70833 14.5417 9.95833 14.7917 10 15.25C9.95833 15.7083 9.70833 15.9583 9.25 16H6.75C6.29167 15.9583 6.04167 15.7083 6 15.25C6.04167 14.7917 6.29167 14.5417 6.75 14.5H7.25V12.5H7C6.54167 12.4583 6.29167 12.2083 6.25 11.75C6.29167 11.2917 6.54167 11.0417 7 11H8C8.45833 11.0417 8.70833 11.2917 8.75 11.75V14.5H9.25ZM8 10C7.70833 10 7.46875 9.90625 7.28125 9.71875C7.09375 9.53125 7 9.29167 7 9C7 8.70833 7.09375 8.46875 7.28125 8.28125C7.46875 8.09375 7.70833 8 8 8C8.29167 8 8.53125 8.09375 8.71875 8.28125C8.90625 8.46875 9 8.70833 9 9C9 9.29167 8.90625 9.53125 8.71875 9.71875C8.53125 9.90625 8.29167 10 8 10Z"/>
</svg>