<svg width="16" height="24" viewBox="0 0 16 24" fill="none" xmlns="http://www.w3.org/2000/svg">
  <path d="M.75 5q.687.063.75.75v11q.063.687.75.75h13q.687.063.75.75-.063.687-.75.75h-13q-.969-.031-1.594-.656Q.032 17.719 0 16.75v-11Q.063 5.063.75 5M4 8.25q.063-.687.75-.75h6.5q.687.063.75.75-.063.687-.75.75h-6.5q-.687-.063-.75-.75m5.25 2.25q.687.063.75.75-.063.687-.75.75h-4.5q-.687-.063-.75-.75.063-.687.75-.75zm4 3q.687.063.75.75-.063.687-.75.75h-8.5q-.687-.063-.75-.75.063-.687.75-.75z" fill="#4D4D4D"/>
</svg>