<svg width="16" height="17" viewBox="0 0 16 17" fill="none" xmlns="http://www.w3.org/2000/svg">
<path d="M6.9375 11.5L11.8958 6.5625L10.8333 5.5L6.9375 9.375L5.16667 7.625L4.10417 8.6875L6.9375 11.5ZM8 16.5C6.90278 16.5 5.86806 16.2917 4.89583 15.875C3.92361 15.4583 3.07292 14.8854 2.34375 14.1562C1.61458 13.4271 1.04167 12.5764 0.625 11.6042C0.208333 10.6319 0 9.59722 0 8.5C0 7.38889 0.208333 6.35069 0.625 5.38542C1.04167 4.42014 1.61458 3.57292 2.34375 2.84375C3.07292 2.11458 3.92361 1.54167 4.89583 1.125C5.86806 0.708333 6.90278 0.5 8 0.5C9.11111 0.5 10.1493 0.708333 11.1146 1.125C12.0799 1.54167 12.9271 2.11458 13.6562 2.84375C14.3854 3.57292 14.9583 4.42014 15.375 5.38542C15.7917 6.35069 16 7.38889 16 8.5C16 9.59722 15.7917 10.6319 15.375 11.6042C14.9583 12.5764 14.3854 13.4271 13.6562 14.1562C12.9271 14.8854 12.0799 15.4583 11.1146 15.875C10.1493 16.2917 9.11111 16.5 8 16.5ZM8 15C9.80556 15 11.3403 14.3681 12.6042 13.1042C13.8681 11.8403 14.5 10.3056 14.5 8.5C14.5 6.69444 13.8681 5.15972 12.6042 3.89583C11.3403 2.63194 9.80556 2 8 2C6.19444 2 4.65972 2.63194 3.39583 3.89583C2.13194 5.15972 1.5 6.69444 1.5 8.5C1.5 10.3056 2.13194 11.8403 3.39583 13.1042C4.65972 14.3681 6.19444 15 8 15Z" fill="#107C10"/>
</svg>
