<svg width="17" height="16" viewBox="0 0 17 16" fill="none" xmlns="http://www.w3.org/2000/svg">
<path d="M7.27084 11L12.2292 6.0625L11.1667 5L7.27084 8.875L5.5 7.125L4.4375 8.1875L7.27084 11ZM8.33334 16C7.23611 16 6.20139 15.7917 5.22917 15.375C4.25695 14.9583 3.40625 14.3854 2.67709 13.6562C1.94792 12.9271 1.375 12.0764 0.958336 11.1042C0.541669 10.1319 0.333336 9.09722 0.333336 8C0.333336 6.88889 0.541669 5.85069 0.958336 4.88542C1.375 3.92014 1.94792 3.07292 2.67709 2.34375C3.40625 1.61458 4.25695 1.04167 5.22917 0.625C6.20139 0.208333 7.23611 0 8.33334 0C9.44445 0 10.4826 0.208333 11.4479 0.625C12.4132 1.04167 13.2604 1.61458 13.9896 2.34375C14.7188 3.07292 15.2917 3.92014 15.7083 4.88542C16.125 5.85069 16.3333 6.88889 16.3333 8C16.3333 9.09722 16.125 10.1319 15.7083 11.1042C15.2917 12.0764 14.7188 12.9271 13.9896 13.6562C13.2604 14.3854 12.4132 14.9583 11.4479 15.375C10.4826 15.7917 9.44445 16 8.33334 16ZM8.33334 14.5C10.1389 14.5 11.6736 13.8681 12.9375 12.6042C14.2014 11.3403 14.8333 9.80556 14.8333 8C14.8333 6.19444 14.2014 4.65972 12.9375 3.39583C11.6736 2.13194 10.1389 1.5 8.33334 1.5C6.52778 1.5 4.99306 2.13194 3.72917 3.39583C2.46528 4.65972 1.83334 6.19444 1.83334 8C1.83334 9.80556 2.46528 11.3403 3.72917 12.6042C4.99306 13.8681 6.52778 14.5 8.33334 14.5Z" fill="#107C10"/>
</svg>
