<svg width="40" height="41" viewBox="0 0 40 41" fill="none" xmlns="http://www.w3.org/2000/svg">
<path d="M26.5859 14.4375C26.5859 14.1771 26.6771 13.9557 26.8594 13.7734C27.0417 13.5911 27.263 13.5 27.5234 13.5C28.1224 13.5521 28.4479 13.8646 28.5 14.4375V27.5625C28.4479 28.1354 28.1224 28.4479 27.5234 28.5C26.9505 28.4479 26.638 28.1354 26.5859 27.5625V14.4375ZM17.875 16.7031C17.4583 16.2604 17.4453 15.8177 17.8359 15.375C18.2526 14.9844 18.6953 14.9714 19.1641 15.3359L24.4766 20.3359C24.6589 20.5182 24.75 20.7396 24.75 21C24.75 21.2604 24.6589 21.4818 24.4766 21.6641L19.1641 26.6641C18.6953 27.0286 18.2526 27.0156 17.8359 26.625C17.6536 26.4427 17.5625 26.2344 17.5625 26C17.5625 25.7396 17.6667 25.5182 17.875 25.3359L21.4688 21.9375H11.9375C11.3646 21.8854 11.0521 21.5729 11 21C11.0521 20.4271 11.3646 20.1146 11.9375 20.0625H21.4688L17.875 16.7031Z" fill="#000A16" fill-opacity="0.7"/>
</svg>
