<svg width="14" height="14" viewBox="0 0 14 14" fill="none" xmlns="http://www.w3.org/2000/svg">
<path d="M13.9688 7C13.9271 7.45833 13.6771 7.70833 13.2188 7.75H2.625L6.78125 11.7188C7.07292 12.0521 7.07292 12.4062 6.78125 12.7812C6.44792 13.0729 6.09375 13.0729 5.71875 12.7812L0.21875 7.53125C0.0729167 7.38542 0 7.20833 0 7C0 6.79167 0.0729167 6.61458 0.21875 6.46875L5.71875 1.21875C6.09375 0.927083 6.44792 0.927083 6.78125 1.21875C7.07292 1.59375 7.07292 1.94792 6.78125 2.28125L2.625 6.25H13.25C13.6875 6.29167 13.9271 6.54167 13.9688 7Z" fill="#808284"/>
</svg>
