<svg width="10" height="14" viewBox="0 0 10 14" fill="none" xmlns="http://www.w3.org/2000/svg">
<path d="M0.200012 11.4V10.2H1.00001V6.19998C1.00001 5.23331 1.29723 4.38331 1.89168 3.64998C2.48612 2.91664 3.25557 2.46109 4.20001 2.28331V1.39998C4.20001 1.17775 4.27779 0.988864 4.43334 0.833309C4.5889 0.677753 4.77779 0.599976 5.00001 0.599976C5.22223 0.599976 5.41112 0.677753 5.56668 0.833309C5.72223 0.988864 5.80001 1.17775 5.80001 1.39998V2.28331C6.74446 2.46109 7.5139 2.91664 8.10834 3.64998C8.70279 4.38331 9.00001 5.23331 9.00001 6.19998V10.2H9.80001V11.4H0.200012ZM4.99651 13.4C4.66551 13.4 4.38334 13.2825 4.15001 13.0475C3.91668 12.8125 3.80001 12.53 3.80001 12.2H6.20001C6.20001 12.5333 6.08218 12.8166 5.84651 13.05C5.61084 13.2833 5.32751 13.4 4.99651 13.4ZM2.20001 10.2H7.80001V6.19998C7.80001 5.4222 7.52779 4.76109 6.98334 4.21664C6.4389 3.6722 5.77779 3.39998 5.00001 3.39998C4.22223 3.39998 3.56112 3.6722 3.01668 4.21664C2.47223 4.76109 2.20001 5.4222 2.20001 6.19998V10.2Z" fill="#F7630C"/>
</svg>
