<svg width="41" height="40" viewBox="0 0 41 40" fill="none" xmlns="http://www.w3.org/2000/svg">
<path d="M20.5901 10.5C22.4651 10.526 24.1448 10.9818 25.6292 11.8672C27.1396 12.7526 28.3375 13.9505 29.2229 15.4609C30.1083 16.9453 30.564 18.625 30.5901 20.5C30.564 22.375 30.1083 24.0547 29.2229 25.5391C28.3375 27.0495 27.1396 28.2474 25.6292 29.1328C24.1448 30.0182 22.4651 30.474 20.5901 30.5C18.7151 30.474 17.0354 30.0182 15.551 29.1328C14.0406 28.2474 12.8427 27.0495 11.9573 25.5391C11.0719 24.0547 10.6161 22.375 10.5901 20.5C10.6161 18.625 11.0719 16.9453 11.9573 15.4609C12.8427 13.9505 14.0406 12.7526 15.551 11.8672C17.0354 10.9818 18.7151 10.526 20.5901 10.5ZM20.5901 28.625C22.8818 28.5729 24.7958 27.7786 26.3323 26.2422C27.8687 24.7057 28.663 22.7917 28.7151 20.5C28.663 18.2083 27.8687 16.2943 26.3323 14.7578C24.7958 13.2214 22.8818 12.4271 20.5901 12.375C18.2984 12.4271 16.3844 13.2214 14.8479 14.7578C13.3114 16.2943 12.5172 18.2083 12.4651 20.5C12.5172 22.7917 13.3114 24.7057 14.8479 26.2422C16.3844 27.7786 18.2984 28.5729 20.5901 28.625ZM20.5901 23.625C20.9286 23.625 21.2151 23.7422 21.4495 23.9766C21.7099 24.2109 21.8401 24.5104 21.8401 24.875C21.8401 25.2396 21.7099 25.5391 21.4495 25.7734C21.2151 26.0078 20.9286 26.125 20.5901 26.125C19.8088 26.0729 19.3922 25.6562 19.3401 24.875C19.3401 24.5104 19.4573 24.2109 19.6917 23.9766C19.926 23.7422 20.2255 23.625 20.5901 23.625ZM21.8792 15.5C22.6864 15.526 23.3375 15.7865 23.8323 16.2812C24.3531 16.8021 24.6135 17.4531 24.6135 18.2344C24.5875 19.224 24.1448 20.0052 23.2854 20.5781L21.5276 21.6719V21.75C21.4755 22.3229 21.163 22.6354 20.5901 22.6875C20.0172 22.6354 19.7047 22.3229 19.6526 21.75V21.125C19.6526 20.7865 19.8088 20.513 20.1213 20.3047L22.3479 18.9375C22.6344 18.7812 22.7776 18.5469 22.7776 18.2344C22.7255 17.7135 22.413 17.4271 21.8401 17.375H19.8479C19.3531 17.4271 19.0797 17.7135 19.0276 18.2344C18.9755 18.8073 18.663 19.1198 18.0901 19.1719C17.5172 19.1198 17.2047 18.8073 17.1526 18.2344C17.1786 17.4531 17.439 16.8021 17.9338 16.2812C18.4547 15.7865 19.1057 15.526 19.887 15.5H21.8792Z" fill="#808284"/>
</svg>
