<svg width="28" height="21" viewBox="0 0 28 21" fill="none" xmlns="http://www.w3.org/2000/svg">
<path d="M11.75 4.5H16.25V3.25C16.2917 2.79167 16.5417 2.54167 17 2.5C17.4583 2.54167 17.7083 2.79167 17.75 3.25V4.5H19C19.5625 4.52083 20.0312 4.71875 20.4062 5.09375C20.7812 5.46875 20.9792 5.9375 21 6.5V16.5C20.9792 17.0625 20.7812 17.5312 20.4062 17.9062C20.0312 18.2812 19.5625 18.4792 19 18.5H9C8.4375 18.4792 7.96875 18.2812 7.59375 17.9062C7.21875 17.5312 7.02083 17.0625 7 16.5V6.5C7.02083 5.9375 7.21875 5.46875 7.59375 5.09375C7.96875 4.71875 8.4375 4.52083 9 4.5H10.25V3.25C10.2917 2.79167 10.5417 2.54167 11 2.5C11.4583 2.54167 11.7083 2.79167 11.75 3.25V4.5ZM8.5 16.5C8.52083 16.8125 8.6875 16.9792 9 17H19C19.3125 16.9792 19.4792 16.8125 19.5 16.5V8.5H8.5V16.5Z" fill="#4D4D4D"/>
</svg>
