<svg width="14" height="24" viewBox="0 0 14 24" fill="none" xmlns="http://www.w3.org/2000/svg">
<path d="M4.75 6H9.25V4.75C9.29167 4.29167 9.54167 4.04167 10 4C10.4583 4.04167 10.7083 4.29167 10.75 4.75V6H12C12.5625 6.02083 13.0312 6.21875 13.4062 6.59375C13.7812 6.96875 13.9792 7.4375 14 8V18C13.9792 18.5625 13.7812 19.0312 13.4062 19.4062C13.0312 19.7812 12.5625 19.9792 12 20H2C1.4375 19.9792 0.96875 19.7812 0.59375 19.4062C0.21875 19.0312 0.0208333 18.5625 0 18L0 8C0.0208333 7.4375 0.21875 6.96875 0.59375 6.59375C0.96875 6.21875 1.4375 6.02083 2 6H3.25V4.75C3.29167 4.29167 3.54167 4.04167 4 4C4.45833 4.04167 4.70833 4.29167 4.75 4.75V6ZM1.5 18C1.52083 18.3125 1.6875 18.4792 2 18.5H12C12.3125 18.4792 12.4792 18.3125 12.5 18V10H1.5V18Z" fill="#4D4D4D"/>
</svg>
