<svg width="20" height="24" viewBox="0 0 20 24" fill="none" xmlns="http://www.w3.org/2000/svg">
<path d="M15.8125 7.96875L20 8V16L17.9688 15.9688C17.6979 15.9688 17.4688 15.875 17.2812 15.6875C17.0938 15.5 17 15.2604 17 14.9688V9.5H15.2812C15.1354 9.45833 15.0104 9.375 14.9062 9.25C14.8854 9.16667 14.5938 8.86458 14.0312 8.34375C13.4688 7.82292 12.7083 7.45833 11.75 7.25C11.4167 7.20833 11.1146 7.3125 10.8438 7.5625L8.15625 10.3125C8.05208 10.4167 8 10.5417 8 10.6875C8 10.8542 8.05208 10.9896 8.15625 11.0938C8.40625 11.3021 8.66667 11.3021 8.9375 11.0938L10.625 9.40625C10.9792 9.11458 11.3333 9.11458 11.6875 9.40625C11.9792 9.76042 11.9792 10.1146 11.6875 10.4688L11.4062 10.7188L15.1875 13.7812C15.5417 14.0938 15.7396 14.4688 15.7812 14.9062C15.8229 15.3438 15.6979 15.75 15.4062 16.125L14.5625 17.25C14.3125 17.5417 14.0104 17.7292 13.6562 17.8125C13.3229 17.8958 12.9792 17.875 12.625 17.75C12.3542 18.0208 12.0104 18.1875 11.5938 18.25C11.0938 18.2917 10.6458 18.1562 10.25 17.8438L10.2188 17.8125C9.86458 18.0417 9.46875 18.1875 9.03125 18.25C8.94792 18.25 8.86458 18.25 8.78125 18.25C8.17708 18.25 7.63542 18.0521 7.15625 17.6562L4.75 15.5H2.84375C2.65625 15.8125 2.375 15.9792 2 16H0L0 8H3V14H5.3125L8.125 16.5312C8.33333 16.6979 8.59375 16.7708 8.90625 16.75C9.19792 16.7083 9.4375 16.5729 9.625 16.3438L9.71875 16.25L10.1875 15.8125L11.2188 16.6562C11.3021 16.7188 11.375 16.7396 11.4375 16.7188C11.4792 16.7188 11.5521 16.6771 11.6562 16.5938L12.4688 15.75L13.1562 16.3125C13.2396 16.375 13.3125 16.3646 13.375 16.2812L14.25 15.1562C14.3125 15.0729 14.3021 14.9896 14.2188 14.9062L10.3438 11.7812L10 12.125C9.58333 12.5208 9.09375 12.7188 8.53125 12.7188C7.98958 12.7188 7.5 12.5312 7.0625 12.1562C6.66667 11.7604 6.46875 11.2812 6.46875 10.7188C6.48958 10.1354 6.69792 9.64583 7.09375 9.25L8.90625 7.40625C8.69792 7.28125 8.47917 7.22917 8.25 7.25C7.29167 7.45833 6.53125 7.82292 5.96875 8.34375C5.40625 8.86458 5.11458 9.16667 5.09375 9.25C4.94792 9.4375 4.75 9.53125 4.5 9.53125C4.33333 9.53125 4.1875 9.48958 4.0625 9.40625C3.70833 9.09375 3.65625 8.73958 3.90625 8.34375C3.92708 8.30208 4.10417 8.09375 4.4375 7.71875C4.77083 7.36458 5.23958 6.98958 5.84375 6.59375C6.44792 6.19792 7.17708 5.92708 8.03125 5.78125C8.76042 5.69792 9.41667 5.875 10 6.3125C10.5833 5.85417 11.2396 5.66667 11.9688 5.75C12.9479 5.9375 13.7604 6.27083 14.4062 6.75C15.0521 7.20833 15.5208 7.61458 15.8125 7.96875ZM1.5 15C1.8125 14.9792 1.97917 14.8125 2 14.5C1.97917 14.1875 1.8125 14.0208 1.5 14C1.1875 14.0208 1.02083 14.1875 1 14.5C1.02083 14.8125 1.1875 14.9792 1.5 15ZM18.5 15C18.8125 14.9792 18.9792 14.8125 19 14.5C18.9792 14.1875 18.8125 14.0208 18.5 14C18.1875 14.0208 18.0208 14.1875 18 14.5C18.0208 14.8125 18.1875 14.9792 18.5 15Z" fill="#4D4D4D"/>
</svg>
