<svg width="30" height="25" viewBox="0 0 30 25" fill="none" xmlns="http://www.w3.org/2000/svg">
<path d="M10.5 12.5C8.8125 12.4688 7.39062 11.8906 6.23438 10.7656C5.10938 9.60938 4.53125 8.1875 4.5 6.5C4.53125 4.8125 5.10938 3.39062 6.23438 2.23438C7.39062 1.10938 8.8125 0.53125 10.5 0.5C12.1875 0.53125 13.6094 1.10938 14.7656 2.23438C15.8906 3.39062 16.4688 4.8125 16.5 6.5C16.4688 8.1875 15.8906 9.60938 14.7656 10.7656C13.6094 11.8906 12.1875 12.4688 10.5 12.5ZM10.5 2.75C9.4375 2.78125 8.54688 3.14062 7.82812 3.82812C7.14062 4.54688 6.78125 5.4375 6.75 6.5C6.78125 7.5625 7.14062 8.45312 7.82812 9.17188C8.54688 9.85938 9.4375 10.2188 10.5 10.25C11.5625 10.2188 12.4531 9.85938 13.1719 9.17188C13.8594 8.45312 14.2188 7.5625 14.25 6.5C14.2188 5.4375 13.8594 4.54688 13.1719 3.82812C12.4531 3.14062 11.5625 2.78125 10.5 2.75ZM12.8906 14.75C15.1719 14.8125 17.0781 15.6094 18.6094 17.1406C20.1406 18.6719 20.9375 20.5781 21 22.8594C21 23.3281 20.8438 23.7188 20.5312 24.0312C20.2188 24.3438 19.8281 24.5 19.3594 24.5H1.64062C1.17188 24.5 0.78125 24.3438 0.46875 24.0312C0.15625 23.7188 0 23.3281 0 22.8594C0.0625 20.5781 0.859375 18.6719 2.39062 17.1406C3.92188 15.6094 5.82812 14.8125 8.10938 14.75H12.8906ZM2.29688 22.25H18.7031C18.5156 20.75 17.875 19.5 16.7812 18.5C15.7188 17.5312 14.4219 17.0312 12.8906 17H8.10938C6.57812 17.0312 5.26562 17.5312 4.17188 18.5C3.10938 19.5 2.48438 20.75 2.29688 22.25ZM22.4531 15.5C24.6094 15.5625 26.3906 16.2969 27.7969 17.7031C29.2031 19.1094 29.9375 20.8594 30 22.9531C30 23.3906 29.8594 23.75 29.5781 24.0312C29.2969 24.3438 28.9375 24.5 28.5 24.5H22.0312C22.3438 24.0312 22.5 23.4844 22.5 22.8594C22.5 21.3906 22.1875 20.0156 21.5625 18.7344C20.9375 17.4844 20.0781 16.4062 18.9844 15.5H22.4531ZM20.25 12.5C18.75 12.4688 17.5 11.9531 16.5 10.9531C17.4688 9.67188 17.9688 8.1875 18 6.5C17.9688 5.25 17.6719 4.10938 17.1094 3.07812C18.0156 2.39062 19.0625 2.03125 20.25 2C21.75 2.03125 22.9844 2.54688 23.9531 3.54688C24.9531 4.51562 25.4688 5.75 25.5 7.25C25.4688 8.75 24.9531 9.98438 23.9531 10.9531C22.9844 11.9531 21.75 12.4688 20.25 12.5Z" fill="#E0181A"/>
</svg>
