<svg width="16" height="24" viewBox="0 0 16 24" fill="none" xmlns="http://www.w3.org/2000/svg">
<path d="M9.75 15C9.72917 15.5 9.5625 15.9167 9.25 16.25C8.91667 16.5625 8.5 16.7292 8 16.75C7.5 16.7292 7.08333 16.5625 6.75 16.25C6.4375 15.9167 6.27083 15.5 6.25 15C6.29167 14.2708 6.61458 13.7396 7.21875 13.4062V7.71875C7.21875 7.51042 7.29167 7.33333 7.4375 7.1875C7.58333 7.04167 7.76042 6.96875 7.96875 6.96875C8.19792 6.96875 8.38542 7.04167 8.53125 7.1875C8.67708 7.33333 8.75 7.51042 8.75 7.71875V13.4062C9.375 13.7396 9.70833 14.2708 9.75 15ZM4 9C4 8.70833 4.09375 8.46875 4.28125 8.28125C4.46875 8.09375 4.70833 8 5 8C5.29167 8 5.53125 8.09375 5.71875 8.28125C5.90625 8.46875 6 8.70833 6 9C6 9.29167 5.90625 9.53125 5.71875 9.71875C5.53125 9.90625 5.29167 10 5 10C4.70833 10 4.46875 9.90625 4.28125 9.71875C4.09375 9.53125 4 9.29167 4 9ZM4.5 12C4.5 12.2917 4.40625 12.5312 4.21875 12.7188C4.03125 12.9062 3.79167 13 3.5 13C3.20833 13 2.96875 12.9062 2.78125 12.7188C2.59375 12.5312 2.5 12.2917 2.5 12C2.5 11.7083 2.59375 11.4688 2.78125 11.2812C2.96875 11.0938 3.20833 11 3.5 11C3.79167 11 4.03125 11.0938 4.21875 11.2812C4.40625 11.4688 4.5 11.7083 4.5 12ZM11.5 12C11.5 11.7083 11.5938 11.4688 11.7812 11.2812C11.9688 11.0938 12.2083 11 12.5 11C12.7917 11 13.0312 11.0938 13.2188 11.2812C13.4062 11.4688 13.5 11.7083 13.5 12C13.5 12.2917 13.4062 12.5312 13.2188 12.7188C13.0312 12.9062 12.7917 13 12.5 13C12.2083 13 11.9688 12.9062 11.7812 12.7188C11.5938 12.5312 11.5 12.2917 11.5 12ZM12 9C12 9.29167 11.9062 9.53125 11.7188 9.71875C11.5312 9.90625 11.2917 10 11 10C10.7083 10 10.4688 9.90625 10.2812 9.71875C10.0938 9.53125 10 9.29167 10 9C10 8.70833 10.0938 8.46875 10.2812 8.28125C10.4688 8.09375 10.7083 8 11 8C11.2917 8 11.5312 8.09375 11.7188 8.28125C11.9062 8.46875 12 8.70833 12 9ZM0 12C0.0208333 10.5 0.385417 9.15625 1.09375 7.96875C1.80208 6.76042 2.76042 5.80208 3.96875 5.09375C5.15625 4.38542 6.5 4.02083 8 4C9.5 4.02083 10.8438 4.38542 12.0312 5.09375C13.2396 5.80208 14.1979 6.76042 14.9062 7.96875C15.6146 9.15625 15.9792 10.5 16 12C15.9792 13.5 15.6146 14.8438 14.9062 16.0312C14.1979 17.2396 13.2396 18.1979 12.0312 18.9062C10.8438 19.6146 9.5 19.9792 8 20C6.5 19.9792 5.15625 19.6146 3.96875 18.9062C2.76042 18.1979 1.80208 17.2396 1.09375 16.0312C0.385417 14.8438 0.0208333 13.5 0 12ZM8 18.5C9.83333 18.4583 11.3646 17.8229 12.5938 16.5938C13.8229 15.3646 14.4583 13.8333 14.5 12C14.4583 10.1667 13.8229 8.63542 12.5938 7.40625C11.3646 6.17708 9.83333 5.54167 8 5.5C6.16667 5.54167 4.63542 6.17708 3.40625 7.40625C2.17708 8.63542 1.54167 10.1667 1.5 12C1.54167 13.8333 2.17708 15.3646 3.40625 16.5938C4.63542 17.8229 6.16667 18.4583 8 18.5Z" fill="white"/>
</svg>
