<svg width="28" height="28" viewBox="0 0 28 28" fill="none" xmlns="http://www.w3.org/2000/svg">
<path d="M15.75 17C15.7292 17.5 15.5625 17.9167 15.25 18.25C14.9167 18.5625 14.5 18.7292 14 18.75C13.5 18.7292 13.0833 18.5625 12.75 18.25C12.4375 17.9167 12.2708 17.5 12.25 17C12.2917 16.2708 12.6146 15.7396 13.2188 15.4062V9.71875C13.2188 9.51042 13.2917 9.33333 13.4375 9.1875C13.5833 9.04167 13.7604 8.96875 13.9688 8.96875C14.1979 8.96875 14.3854 9.04167 14.5312 9.1875C14.6771 9.33333 14.75 9.51042 14.75 9.71875V15.4062C15.375 15.7396 15.7083 16.2708 15.75 17ZM10 11C10 10.7083 10.0938 10.4688 10.2812 10.2812C10.4688 10.0938 10.7083 10 11 10C11.2917 10 11.5312 10.0938 11.7188 10.2812C11.9062 10.4688 12 10.7083 12 11C12 11.2917 11.9062 11.5312 11.7188 11.7188C11.5312 11.9062 11.2917 12 11 12C10.7083 12 10.4688 11.9062 10.2812 11.7188C10.0938 11.5312 10 11.2917 10 11ZM10.5 14C10.5 14.2917 10.4062 14.5312 10.2188 14.7188C10.0312 14.9062 9.79167 15 9.5 15C9.20833 15 8.96875 14.9062 8.78125 14.7188C8.59375 14.5312 8.5 14.2917 8.5 14C8.5 13.7083 8.59375 13.4688 8.78125 13.2812C8.96875 13.0938 9.20833 13 9.5 13C9.79167 13 10.0312 13.0938 10.2188 13.2812C10.4062 13.4688 10.5 13.7083 10.5 14ZM17.5 14C17.5 13.7083 17.5938 13.4688 17.7812 13.2812C17.9688 13.0938 18.2083 13 18.5 13C18.7917 13 19.0312 13.0938 19.2188 13.2812C19.4062 13.4688 19.5 13.7083 19.5 14C19.5 14.2917 19.4062 14.5312 19.2188 14.7188C19.0312 14.9062 18.7917 15 18.5 15C18.2083 15 17.9688 14.9062 17.7812 14.7188C17.5938 14.5312 17.5 14.2917 17.5 14ZM18 11C18 11.2917 17.9062 11.5312 17.7188 11.7188C17.5312 11.9062 17.2917 12 17 12C16.7083 12 16.4688 11.9062 16.2812 11.7188C16.0938 11.5312 16 11.2917 16 11C16 10.7083 16.0938 10.4688 16.2812 10.2812C16.4688 10.0938 16.7083 10 17 10C17.2917 10 17.5312 10.0938 17.7188 10.2812C17.9062 10.4688 18 10.7083 18 11ZM6 14C6.02083 12.5 6.38542 11.1562 7.09375 9.96875C7.80208 8.76042 8.76042 7.80208 9.96875 7.09375C11.1562 6.38542 12.5 6.02083 14 6C15.5 6.02083 16.8438 6.38542 18.0312 7.09375C19.2396 7.80208 20.1979 8.76042 20.9062 9.96875C21.6146 11.1562 21.9792 12.5 22 14C21.9792 15.5 21.6146 16.8438 20.9062 18.0312C20.1979 19.2396 19.2396 20.1979 18.0312 20.9062C16.8438 21.6146 15.5 21.9792 14 22C12.5 21.9792 11.1562 21.6146 9.96875 20.9062C8.76042 20.1979 7.80208 19.2396 7.09375 18.0312C6.38542 16.8438 6.02083 15.5 6 14ZM14 20.5C15.8333 20.4583 17.3646 19.8229 18.5938 18.5938C19.8229 17.3646 20.4583 15.8333 20.5 14C20.4583 12.1667 19.8229 10.6354 18.5938 9.40625C17.3646 8.17708 15.8333 7.54167 14 7.5C12.1667 7.54167 10.6354 8.17708 9.40625 9.40625C8.17708 10.6354 7.54167 12.1667 7.5 14C7.54167 15.8333 8.17708 17.3646 9.40625 18.5938C10.6354 19.8229 12.1667 20.4583 14 20.5Z" fill="#FFFFFF"/>
</svg>
