<svg width="28" height="28" viewBox="0 0 28 28" fill="none" xmlns="http://www.w3.org/2000/svg">
<path d="M11.875 17.6875C11.8568 17.9609 11.7109 18.1068 11.4375 18.125C11.1641 18.1068 11.0182 17.9609 11 17.6875V12C11.0182 11.7266 11.1641 11.5807 11.4375 11.5625C11.7109 11.5807 11.8568 11.7266 11.875 12V17.6875ZM14.0625 17.6875C14.0443 17.9609 13.8984 18.1068 13.625 18.125C13.3516 18.1068 13.2057 17.9609 13.1875 17.6875V12C13.2057 11.7266 13.3516 11.5807 13.625 11.5625C13.8984 11.5807 14.0443 11.7266 14.0625 12V17.6875ZM16.25 17.6875C16.2318 17.9609 16.0859 18.1068 15.8125 18.125C15.5391 18.1068 15.3932 17.9609 15.375 17.6875V12C15.3932 11.7266 15.5391 11.5807 15.8125 11.5625C16.0859 11.5807 16.2318 11.7266 16.25 12V17.6875ZM16.1953 7.43359L17.1797 8.9375H19.0938C19.4948 8.97396 19.7135 9.19271 19.75 9.59375C19.7135 9.99479 19.4948 10.2135 19.0938 10.25H18.875V18.5625C18.8568 19.1823 18.6471 19.7018 18.2461 20.1211C17.8268 20.5221 17.3073 20.7318 16.6875 20.75H10.5625C9.94271 20.7318 9.42318 20.5221 9.00391 20.1211C8.60286 19.7018 8.39323 19.1823 8.375 18.5625V10.25H8.15625C7.75521 10.2135 7.53646 9.99479 7.5 9.59375C7.53646 9.19271 7.75521 8.97396 8.15625 8.9375H10.0703L11.082 7.43359C11.3919 6.99609 11.8112 6.76823 12.3398 6.75H14.9102C15.4388 6.76823 15.8672 6.99609 16.1953 7.43359ZM11.6562 8.9375H15.6211L15.1016 8.17188C15.0469 8.09896 14.9831 8.0625 14.9102 8.0625H12.3398C12.2487 8.0625 12.194 8.09896 12.1758 8.17188L11.6562 8.9375ZM9.6875 18.5625C9.6875 18.8177 9.76953 19.0273 9.93359 19.1914C10.0977 19.3555 10.3073 19.4375 10.5625 19.4375H16.6875C16.9427 19.4375 17.1523 19.3555 17.3164 19.1914C17.4805 19.0273 17.5625 18.8177 17.5625 18.5625V10.25H9.6875V18.5625Z" fill="#E0181A"/>
</svg>
