<svg width="12" height="16" viewBox="0 0 12 16" fill="none" xmlns="http://www.w3.org/2000/svg">
<path d="M11.4062 2.90625C11.8021 3.30208 12 3.78125 12 4.34375V14C11.9792 14.5625 11.7812 15.0312 11.4062 15.4062C11.0312 15.7812 10.5625 15.9792 10 16H2C1.4375 15.9792 0.96875 15.7812 0.59375 15.4062C0.21875 15.0312 0.0208333 14.5625 0 14L0 2C0.0208333 1.4375 0.21875 0.96875 0.59375 0.59375C0.96875 0.21875 1.4375 0.0208333 2 0H7.65625C8.21875 0 8.69792 0.197917 9.09375 0.59375L11.4062 2.90625ZM10 14.5C10.3125 14.4792 10.4688 14.3125 10.4688 14V5H8C7.70833 5 7.46875 4.90625 7.28125 4.71875C7.09375 4.53125 7 4.29167 7 4V1.5H2C1.6875 1.54167 1.52083 1.70833 1.5 2V14.0312C1.54167 14.3021 1.70833 14.4583 2 14.5H10Z" fill="#4D4D4D"/>
</svg>
