<svg width="16" height="16" viewBox="0 0 16 16" fill="none" xmlns="http://www.w3.org/2000/svg">
<path d="M14 9.5C14.5625 9.52083 15.0312 9.71875 15.4062 10.0938C15.7812 10.4688 15.9792 10.9375 16 11.5V14C15.9792 14.5625 15.7812 15.0312 15.4062 15.4062C15.0312 15.7812 14.5625 15.9792 14 16H2C1.4375 15.9792 0.96875 15.7812 0.59375 15.4062C0.21875 15.0312 0.0208333 14.5625 0 14L0 11.5C0.0208333 10.9375 0.21875 10.4688 0.59375 10.0938C0.96875 9.71875 1.4375 9.52083 2 9.5H3.6875L5.1875 11H2C1.6875 11.0208 1.52083 11.1875 1.5 11.5V14C1.52083 14.3125 1.6875 14.4792 2 14.5H14C14.3125 14.4792 14.4792 14.3125 14.5 14V11.5C14.4792 11.1875 14.3125 11.0208 14 11H10.8438L12.3438 9.5H14ZM13.5 12.75C13.4583 13.2083 13.2083 13.4583 12.75 13.5C12.2917 13.4583 12.0417 13.2083 12 12.75C12.0417 12.2917 12.2917 12.0417 12.75 12C13.2083 12.0417 13.4583 12.2917 13.5 12.75ZM7.46875 11.5L3.1875 7.28125C2.89583 6.92708 2.89583 6.57292 3.1875 6.21875C3.54167 5.92708 3.89583 5.92708 4.25 6.21875L7.25 9.1875V0.75C7.29167 0.291667 7.54167 0.0416667 8 0C8.45833 0.0416667 8.70833 0.291667 8.75 0.75V9.1875L11.7188 6.21875C12.0729 5.92708 12.4271 5.92708 12.7812 6.21875C13.0729 6.57292 13.0729 6.92708 12.7812 7.28125L8.53125 11.5312C8.38542 11.6771 8.20833 11.75 8 11.75C7.79167 11.75 7.61458 11.6667 7.46875 11.5Z" fill="#808284"/>
</svg>
