<svg width="28" height="28" viewBox="0 0 28 28" fill="none" xmlns="http://www.w3.org/2000/svg">
<path d="M17.6562 6.78125C18.1146 6.34375 18.6458 6.125 19.25 6.125C19.8542 6.125 20.3854 6.34375 20.8438 6.78125L21.2188 7.15625C21.6562 7.61458 21.875 8.14583 21.875 8.75C21.875 9.35417 21.6562 9.88542 21.2188 10.3438L15.0625 16.5C14.7917 16.7708 14.4688 16.9688 14.0938 17.0938L10.9688 17.9688C10.6771 18.0521 10.4271 17.9792 10.2188 17.75C10.0312 17.5625 9.96875 17.3229 10.0312 17.0312L10.9375 13.9062C11.0417 13.5312 11.2292 13.2083 11.5 12.9375L17.6562 6.78125ZM19.75 7.84375C19.4167 7.55208 19.0729 7.55208 18.7188 7.84375L17.8125 8.75L19.25 10.1875L20.1562 9.25C20.4479 8.91667 20.4479 8.57292 20.1562 8.21875L19.75 7.84375ZM12.375 14.3438L11.8438 16.1562L13.6562 15.625C13.7812 15.6042 13.8958 15.5417 14 15.4375L18.1875 11.25L16.75 9.8125L12.5625 14C12.4583 14.1042 12.3958 14.2188 12.375 14.3438ZM12.25 8C12.7083 8.04167 12.9583 8.29167 13 8.75C12.9583 9.20833 12.7083 9.45833 12.25 9.5H8.75C8.39583 9.5 8.10417 9.625 7.875 9.875C7.625 10.1042 7.5 10.3958 7.5 10.75V19.25C7.5 19.6042 7.625 19.8958 7.875 20.125C8.10417 20.375 8.39583 20.5 8.75 20.5H17.25C17.6042 20.5 17.8958 20.375 18.125 20.125C18.375 19.8958 18.5 19.6042 18.5 19.25V15.75C18.5417 15.2917 18.7917 15.0417 19.25 15C19.7083 15.0417 19.9583 15.2917 20 15.75V19.25C19.9792 20.0208 19.7083 20.6667 19.1875 21.1875C18.6667 21.7083 18.0208 21.9792 17.25 22H8.75C7.97917 21.9792 7.33333 21.7083 6.8125 21.1875C6.29167 20.6667 6.02083 20.0208 6 19.25V10.75C6.02083 9.97917 6.29167 9.33333 6.8125 8.8125C7.33333 8.29167 7.97917 8.02083 8.75 8H12.25Z" fill="#1A1A1A"/>
</svg>
