<svg width="16" height="16" viewBox="0 0 16 16" fill="none" xmlns="http://www.w3.org/2000/svg">
<path d="M11.6562 0.78125C12.1146 0.34375 12.6458 0.125 13.25 0.125C13.8542 0.125 14.3854 0.34375 14.8438 0.78125L15.2188 1.15625C15.6562 1.61458 15.875 2.14583 15.875 2.75C15.875 3.35417 15.6562 3.88542 15.2188 4.34375L9.0625 10.5C8.79167 10.7708 8.46875 10.9688 8.09375 11.0938L4.96875 11.9688C4.67708 12.0521 4.42708 11.9792 4.21875 11.75C4.03125 11.5625 3.96875 11.3229 4.03125 11.0312L4.9375 7.90625C5.04167 7.53125 5.22917 7.20833 5.5 6.9375L11.6562 0.78125ZM13.75 1.84375C13.4167 1.55208 13.0729 1.55208 12.7188 1.84375L11.8125 2.75L13.25 4.1875L14.1562 3.25C14.4479 2.91667 14.4479 2.57292 14.1562 2.21875L13.75 1.84375ZM6.375 8.34375L5.84375 10.1562L7.65625 9.625C7.78125 9.60417 7.89583 9.54167 8 9.4375L12.1875 5.25L10.75 3.8125L6.5625 8C6.45833 8.10417 6.39583 8.21875 6.375 8.34375ZM6.25 2C6.70833 2.04167 6.95833 2.29167 7 2.75C6.95833 3.20833 6.70833 3.45833 6.25 3.5H2.75C2.39583 3.5 2.10417 3.625 1.875 3.875C1.625 4.10417 1.5 4.39583 1.5 4.75V13.25C1.5 13.6042 1.625 13.8958 1.875 14.125C2.10417 14.375 2.39583 14.5 2.75 14.5H11.25C11.6042 14.5 11.8958 14.375 12.125 14.125C12.375 13.8958 12.5 13.6042 12.5 13.25V9.75C12.5417 9.29167 12.7917 9.04167 13.25 9C13.7083 9.04167 13.9583 9.29167 14 9.75V13.25C13.9792 14.0208 13.7083 14.6667 13.1875 15.1875C12.6667 15.7083 12.0208 15.9792 11.25 16H2.75C1.97917 15.9792 1.33333 15.7083 0.8125 15.1875C0.291667 14.6667 0.0208333 14.0208 0 13.25V4.75C0.0208333 3.97917 0.291667 3.33333 0.8125 2.8125C1.33333 2.29167 1.97917 2.02083 2.75 2H6.25Z" fill="#1A1A1A"/>
</svg>
