<svg width="18" height="15" viewBox="0 0 18 15" fill="none" xmlns="http://www.w3.org/2000/svg">
<path d="M1.8 14.7606C1.305 14.7606 0.88125 14.5893 0.52875 14.2466C0.17625 13.9038 0 13.4919 0 13.0106V2.51062C0 2.02937 0.17625 1.61739 0.52875 1.27468C0.88125 0.931974 1.305 0.76062 1.8 0.76062H16.2C16.695 0.76062 17.1188 0.931974 17.4713 1.27468C17.8238 1.61739 18 2.02937 18 2.51062V13.0106C18 13.4919 17.8238 13.9038 17.4713 14.2466C17.1188 14.5893 16.695 14.7606 16.2 14.7606H1.8ZM9 8.63562L1.8 4.26062V13.0106H16.2V4.26062L9 8.63562ZM9 6.88562L16.2 2.51062H1.8L9 6.88562ZM1.8 4.26062V2.51062V13.0106V4.26062Z" fill="#0273AE"/>
</svg>
