<svg width="16" height="16" viewBox="0 0 16 16" fill="none" xmlns="http://www.w3.org/2000/svg">
<path d="M0 2.3125C0 1.9375 0.125 1.625 0.375 1.375C0.625 1.125 0.9375 1 1.3125 1H14.6875C15.0625 1 15.375 1.125 15.625 1.375C15.875 1.625 16 1.9375 16 2.3125C16 2.625 15.9062 2.89583 15.7188 3.125L10.5 9.53125V14C10.5 14.2708 10.4062 14.5104 10.2188 14.7188C10.0104 14.9062 9.77083 15 9.5 15C9.25 15 9.04167 14.9167 8.875 14.75L5.96875 12.5C5.65625 12.2292 5.5 11.8958 5.5 11.5V9.53125L0.28125 3.125C0.09375 2.89583 0 2.625 0 2.3125ZM1.71875 2.5L6.84375 8.78125C6.94792 8.92708 7 9.08333 7 9.25V11.375L9 12.9688V9.25C9 9.08333 9.05208 8.92708 9.15625 8.78125L14.2812 2.5H1.71875Z" fill="#808284"/>
</svg>
