<svg width="24" height="24" viewBox="0 0 24 24" fill="none" xmlns="http://www.w3.org/2000/svg">
<path d="M7.195 2.84501C7.15917 2.67705 7.06679 2.52647 6.93328 2.41844C6.79978 2.31041 6.63324 2.25146 6.4615 2.25146C6.28976 2.25146 6.12322 2.31041 5.98972 2.41844C5.85621 2.52647 5.76383 2.67705 5.728 2.84501C5.496 3.94101 5.178 4.68001 4.738 5.20601C4.309 5.72201 3.709 6.09901 2.788 6.37201C2.63301 6.41801 2.49703 6.51286 2.40034 6.64243C2.30364 6.772 2.2514 6.92934 2.2514 7.09101C2.2514 7.25268 2.30364 7.41003 2.40034 7.53959C2.49703 7.66916 2.63301 7.76401 2.788 7.81001C3.673 8.07201 4.268 8.42701 4.704 8.93501C5.148 9.45101 5.486 10.195 5.728 11.337C5.76383 11.505 5.85621 11.6556 5.98972 11.7636C6.12322 11.8716 6.28976 11.9306 6.4615 11.9306C6.63324 11.9306 6.79978 11.8716 6.93328 11.7636C7.06679 11.6556 7.15917 11.505 7.195 11.337C7.437 10.194 7.775 9.45101 8.219 8.93501C8.655 8.42701 9.249 8.07201 10.136 7.81001C10.291 7.76401 10.427 7.66916 10.5237 7.53959C10.6204 7.41003 10.6726 7.25268 10.6726 7.09101C10.6726 6.92934 10.6204 6.772 10.5237 6.64243C10.427 6.51286 10.291 6.41801 10.136 6.37201C9.25 6.11001 8.655 5.75501 8.219 5.24701C7.775 4.73101 7.437 3.98701 7.195 2.84501ZM15.498 6.09601C15.4585 5.93246 15.3651 5.78696 15.2329 5.68289C15.1006 5.57883 14.9373 5.52225 14.769 5.52225C14.6007 5.52225 14.4374 5.57883 14.3051 5.68289C14.1729 5.78696 14.0795 5.93246 14.04 6.09601C13.486 8.38801 12.899 9.77001 12.068 10.734C11.248 11.686 10.121 12.31 8.298 12.926C8.14939 12.9762 8.02028 13.0718 7.92883 13.1993C7.83737 13.3267 7.78819 13.4796 7.78819 13.6365C7.78819 13.7934 7.83737 13.9463 7.92883 14.0738C8.02028 14.2012 8.14939 14.2968 8.298 14.347C10.202 14.99 11.344 15.669 12.15 16.639C12.969 17.625 13.512 18.994 14.04 21.176C14.0795 21.3396 14.1729 21.4851 14.3051 21.5891C14.4374 21.6932 14.6007 21.7498 14.769 21.7498C14.9373 21.7498 15.1006 21.6932 15.2329 21.5891C15.3651 21.4851 15.4585 21.3396 15.498 21.176C16.052 18.885 16.64 17.503 17.47 16.539C18.29 15.587 19.417 14.963 21.24 14.347C21.3886 14.2968 21.5177 14.2012 21.6092 14.0738C21.7006 13.9463 21.7498 13.7934 21.7498 13.6365C21.7498 13.4796 21.7006 13.3267 21.6092 13.1993C21.5177 13.0718 21.3886 12.9762 21.24 12.926C19.333 12.282 18.193 11.606 17.388 10.636C16.57 9.65201 16.028 8.28401 15.498 6.09601Z" fill="url(#paint0_linear_1416_13163)"/>
<defs>
<linearGradient id="paint0_linear_1416_13163" x1="12.0006" y1="2.25146" x2="12.9999" y2="30" gradientUnits="userSpaceOnUse">
<stop stop-color="#D543FF"/>
<stop offset="1" stop-color="#2770F2"/>
</linearGradient>
</defs>
</svg>
