<svg width="16" height="14" viewBox="0 0 16 14" fill="none" xmlns="http://www.w3.org/2000/svg">
<path d="M14 2C14.5625 2.02083 15.0312 2.21875 15.4062 2.59375C15.7812 2.96875 15.9792 3.4375 16 4V12C15.9792 12.5625 15.7812 13.0312 15.4062 13.4062C15.0312 13.7812 14.5625 13.9792 14 14H2C1.4375 13.9792 0.96875 13.7812 0.59375 13.4062C0.21875 13.0312 0.0208333 12.5625 0 12V2C0.0208333 1.4375 0.21875 0.96875 0.59375 0.59375C0.96875 0.21875 1.4375 0.0208333 2 0H5.6875C6.22917 0 6.69792 0.197917 7.09375 0.59375L8.625 2H14ZM2 1.5C1.6875 1.52083 1.52083 1.6875 1.5 2V5H14.5V4C14.4792 3.6875 14.3125 3.52083 14 3.5H8L6.03125 1.65625C5.92708 1.55208 5.8125 1.5 5.6875 1.5H2ZM14 12.5C14.3125 12.4792 14.4792 12.3125 14.5 12V6.5H1.5V12C1.52083 12.3125 1.6875 12.4792 2 12.5H14Z" fill="#3268BE"/>
</svg>
