<svg width="16" height="24" viewBox="0 0 16 24" fill="none" xmlns="http://www.w3.org/2000/svg">
<path d="M8 4C9.5 4.02083 10.8438 4.38542 12.0312 5.09375C13.2396 5.80208 14.1979 6.76042 14.9062 7.96875C15.6146 9.15625 15.9792 10.5 16 12C15.9792 13.5 15.6146 14.8438 14.9062 16.0312C14.1979 17.2396 13.2396 18.1979 12.0312 18.9062C10.8438 19.6146 9.5 19.9792 8 20C6.5 19.9792 5.15625 19.6146 3.96875 18.9062C2.76042 18.1979 1.80208 17.2396 1.09375 16.0312C0.385417 14.8438 0.0208333 13.5 0 12C0.0208333 10.5 0.385417 9.15625 1.09375 7.96875C1.80208 6.76042 2.76042 5.80208 3.96875 5.09375C5.15625 4.38542 6.5 4.02083 8 4ZM8 18.5C9.83333 18.4583 11.3646 17.8229 12.5938 16.5938C13.8229 15.3646 14.4583 13.8333 14.5 12C14.4583 10.1667 13.8229 8.63542 12.5938 7.40625C11.3646 6.17708 9.83333 5.54167 8 5.5C6.16667 5.54167 4.63542 6.17708 3.40625 7.40625C2.17708 8.63542 1.54167 10.1667 1.5 12C1.54167 13.8333 2.17708 15.3646 3.40625 16.5938C4.63542 17.8229 6.16667 18.4583 8 18.5ZM8 14.5C8.27083 14.5 8.5 14.5938 8.6875 14.7812C8.89583 14.9688 9 15.2083 9 15.5C9 15.7917 8.89583 16.0312 8.6875 16.2188C8.5 16.4062 8.27083 16.5 8 16.5C7.375 16.4583 7.04167 16.125 7 15.5C7 15.2083 7.09375 14.9688 7.28125 14.7812C7.46875 14.5938 7.70833 14.5 8 14.5ZM9.03125 8C9.67708 8.02083 10.1979 8.22917 10.5938 8.625C11.0104 9.04167 11.2188 9.5625 11.2188 10.1875C11.1979 10.9792 10.8438 11.6042 10.1562 12.0625L8.75 12.9375V13C8.70833 13.4583 8.45833 13.7083 8 13.75C7.54167 13.7083 7.29167 13.4583 7.25 13V12.5C7.25 12.2292 7.375 12.0104 7.625 11.8438L9.40625 10.75C9.63542 10.625 9.75 10.4375 9.75 10.1875C9.70833 9.77083 9.45833 9.54167 9 9.5H7.40625C7.01042 9.54167 6.79167 9.77083 6.75 10.1875C6.70833 10.6458 6.45833 10.8958 6 10.9375C5.54167 10.8958 5.29167 10.6458 5.25 10.1875C5.27083 9.5625 5.47917 9.04167 5.875 8.625C6.29167 8.22917 6.8125 8.02083 7.4375 8H9.03125Z" fill="#000A16" fill-opacity="0.7"/>
</svg>
