<svg width="41" height="40" viewBox="0 0 41 40" fill="none" xmlns="http://www.w3.org/2000/svg">
<path d="M21.5901 11.75V12.4531C23.0484 12.7135 24.2333 13.3776 25.1448 14.4453C26.0823 15.513 26.564 16.8021 26.5901 18.3125V19.6016C26.6161 21.4245 27.189 23.0521 28.3088 24.4844L28.8948 25.2266C29.1292 25.5391 29.1682 25.8646 29.012 26.2031C28.8297 26.5417 28.5432 26.724 28.1526 26.75H12.5276C12.137 26.724 11.8505 26.5417 11.6682 26.2031C11.512 25.8646 11.551 25.5391 11.7854 25.2266L12.3713 24.4844C13.4911 23.0521 14.064 21.4245 14.0901 19.6016V18.3125C14.1161 16.8021 14.5979 15.513 15.5354 14.4453C16.4469 13.3776 17.6318 12.7135 19.0901 12.4531V11.75C19.0901 11.3854 19.2073 11.0859 19.4417 10.8516C19.676 10.6172 19.9755 10.5 20.3401 10.5C20.7047 10.5 21.0042 10.6172 21.2385 10.8516C21.4729 11.0859 21.5901 11.3854 21.5901 11.75ZM20.0276 14.25C18.8818 14.276 17.9182 14.6667 17.137 15.4219C16.3818 16.2031 15.9911 17.1667 15.9651 18.3125V19.6016C15.9651 21.5286 15.4443 23.2865 14.4026 24.875H26.2776C25.2359 23.2865 24.7151 21.5286 24.7151 19.6016V18.3125C24.689 17.1667 24.2984 16.2031 23.5432 15.4219C22.762 14.6667 21.7984 14.276 20.6526 14.25H20.0276ZM22.8401 28C22.8401 28.6771 22.5927 29.263 22.0979 29.7578C21.6031 30.2526 21.0172 30.5 20.3401 30.5C19.663 30.5 19.0771 30.2526 18.5823 29.7578C18.0875 29.263 17.8401 28.6771 17.8401 28H22.8401Z" fill="#808284"/>
</svg>
