<svg width="22" height="21" viewBox="0 0 22 21" fill="none" xmlns="http://www.w3.org/2000/svg">
<path d="M11 3.75C12.3125 3.76823 13.4883 4.08724 14.5273 4.70703C15.5846 5.32682 16.4232 6.16536 17.043 7.22266C17.6628 8.26172 17.9818 9.4375 18 10.75C17.9818 12.0625 17.6628 13.2383 17.043 14.2773C16.4232 15.3346 15.5846 16.1732 14.5273 16.793C13.4883 17.4128 12.3125 17.7318 11 17.75C9.6875 17.7318 8.51172 17.4128 7.47266 16.793C6.41536 16.1732 5.57682 15.3346 4.95703 14.2773C4.33724 13.2383 4.01823 12.0625 4 10.75C4.01823 9.4375 4.33724 8.26172 4.95703 7.22266C5.57682 6.16536 6.41536 5.32682 7.47266 4.70703C8.51172 4.08724 9.6875 3.76823 11 3.75ZM11 16.4375C12.6042 16.401 13.944 15.8451 15.0195 14.7695C16.0951 13.694 16.651 12.3542 16.6875 10.75C16.651 9.14583 16.0951 7.80599 15.0195 6.73047C13.944 5.65495 12.6042 5.09896 11 5.0625C9.39583 5.09896 8.05599 5.65495 6.98047 6.73047C5.90495 7.80599 5.34896 9.14583 5.3125 10.75C5.34896 12.3542 5.90495 13.694 6.98047 14.7695C8.05599 15.8451 9.39583 16.401 11 16.4375ZM12.0938 12.9375C12.4948 12.974 12.7135 13.1927 12.75 13.5938C12.7135 13.9948 12.4948 14.2135 12.0938 14.25H9.90625C9.50521 14.2135 9.28646 13.9948 9.25 13.5938C9.28646 13.1927 9.50521 12.974 9.90625 12.9375H10.3438V11.1875H10.125C9.72396 11.151 9.50521 10.9323 9.46875 10.5312C9.50521 10.1302 9.72396 9.91146 10.125 9.875H11C11.401 9.91146 11.6198 10.1302 11.6562 10.5312V12.9375H12.0938ZM11 9C10.7448 9 10.5352 8.91797 10.3711 8.75391C10.207 8.58984 10.125 8.38021 10.125 8.125C10.125 7.86979 10.207 7.66016 10.3711 7.49609C10.5352 7.33203 10.7448 7.25 11 7.25C11.2552 7.25 11.4648 7.33203 11.6289 7.49609C11.793 7.66016 11.875 7.86979 11.875 8.125C11.875 8.38021 11.793 8.58984 11.6289 8.75391C11.4648 8.91797 11.2552 9 11 9Z" fill="#418DED"/>
</svg>
