<svg width="45" height="26" viewBox="0 0 45 26" fill="none" xmlns="http://www.w3.org/2000/svg">
<mask id="path-1-outside-1_575_28636" maskUnits="userSpaceOnUse" x="0" y="2" width="18" height="24" fill="black">
<rect fill="white" y="2" width="18" height="24"/>
<path d="M3.498 7.18C3.498 6.058 3.344 5.233 3.036 4.705C2.728 4.155 2.112 3.88 1.188 3.88H0.528V3.22H9.108C11.22 3.22 13.123 3.671 14.817 4.573C16.511 5.475 17.358 7.224 17.358 9.82C17.358 11.536 16.918 12.856 16.038 13.78C15.158 14.704 14.168 15.32 13.068 15.628C11.99 15.936 11 16.09 10.098 16.09H6.468V25H3.498V7.18ZM8.943 14.935C9.647 14.935 10.395 14.759 11.187 14.407C11.979 14.033 12.65 13.45 13.2 12.658C13.772 11.866 14.058 10.865 14.058 9.655C14.058 8.445 13.772 7.444 13.2 6.652C12.65 5.86 11.979 5.288 11.187 4.936C10.395 4.562 9.647 4.375 8.943 4.375C8.173 4.375 7.348 4.485 6.468 4.705V14.605C7.348 14.825 8.173 14.935 8.943 14.935Z"/>
</mask>
<path d="M3.498 7.18C3.498 6.058 3.344 5.233 3.036 4.705C2.728 4.155 2.112 3.88 1.188 3.88H0.528V3.22H9.108C11.22 3.22 13.123 3.671 14.817 4.573C16.511 5.475 17.358 7.224 17.358 9.82C17.358 11.536 16.918 12.856 16.038 13.78C15.158 14.704 14.168 15.32 13.068 15.628C11.99 15.936 11 16.09 10.098 16.09H6.468V25H3.498V7.18ZM8.943 14.935C9.647 14.935 10.395 14.759 11.187 14.407C11.979 14.033 12.65 13.45 13.2 12.658C13.772 11.866 14.058 10.865 14.058 9.655C14.058 8.445 13.772 7.444 13.2 6.652C12.65 5.86 11.979 5.288 11.187 4.936C10.395 4.562 9.647 4.375 8.943 4.375C8.173 4.375 7.348 4.485 6.468 4.705V14.605C7.348 14.825 8.173 14.935 8.943 14.935Z" fill="url(#paint0_linear_575_28636)"/>
<path d="M3.036 4.705L2.68694 4.90047L2.69049 4.90655L3.036 4.705ZM0.528 3.88H0.128V4.28H0.528V3.88ZM0.528 3.22V2.82H0.128V3.22H0.528ZM14.817 4.573L15.005 4.21993L14.817 4.573ZM16.038 13.78L16.3277 14.0559V14.0559L16.038 13.78ZM13.068 15.628L12.9601 15.2428L12.9581 15.2434L13.068 15.628ZM6.468 16.09V15.69H6.068V16.09H6.468ZM6.468 25V25.4H6.868V25H6.468ZM3.498 25H3.098V25.4H3.498V25ZM11.187 14.407L11.3495 14.7726L11.3578 14.7687L11.187 14.407ZM13.2 12.658L12.8757 12.4238L12.8715 12.4298L13.2 12.658ZM13.2 6.652L12.8714 6.8802L12.8757 6.88619L13.2 6.652ZM11.187 4.936L11.0162 5.29779L11.0245 5.30152L11.187 4.936ZM6.468 4.705L6.37099 4.31694L6.068 4.39269V4.705H6.468ZM6.468 14.605H6.068V14.9173L6.37099 14.9931L6.468 14.605ZM3.498 7.18H3.898C3.898 6.0375 3.74405 5.12495 3.38151 4.50345L3.036 4.705L2.69049 4.90655C2.94395 5.34105 3.098 6.07849 3.098 7.18H3.498ZM3.036 4.705L3.385 4.50956C2.97615 3.77947 2.18234 3.48 1.188 3.48V3.88V4.28C2.04166 4.28 2.47985 4.53053 2.687 4.90044L3.036 4.705ZM1.188 3.88V3.48H0.528V3.88V4.28H1.188V3.88ZM0.528 3.88H0.928V3.22H0.528H0.128V3.88H0.528ZM0.528 3.22V3.62H9.108V3.22V2.82H0.528V3.22ZM9.108 3.22V3.62C11.1612 3.62 12.9985 4.05789 14.629 4.92607L14.817 4.573L15.005 4.21993C13.2475 3.28411 11.2788 2.82 9.108 2.82V3.22ZM14.817 4.573L14.629 4.92607C16.147 5.73434 16.958 7.31188 16.958 9.82H17.358H17.758C17.758 7.13612 16.875 5.21566 15.005 4.21993L14.817 4.573ZM17.358 9.82H16.958C16.958 11.4695 16.536 12.6771 15.7483 13.5041L16.038 13.78L16.3277 14.0559C17.3 13.0349 17.758 11.6025 17.758 9.82H17.358ZM16.038 13.78L15.7483 13.5041C14.912 14.3823 13.9829 14.9564 12.9601 15.2428L13.068 15.628L13.1759 16.0132C14.3531 15.6836 15.404 15.0257 16.3277 14.0559L16.038 13.78ZM13.068 15.628L12.9581 15.2434C11.9076 15.5435 10.9551 15.69 10.098 15.69V16.09V16.49C11.0449 16.49 12.0724 16.3285 13.1779 16.0126L13.068 15.628ZM10.098 16.09V15.69H6.468V16.09V16.49H10.098V16.09ZM6.468 16.09H6.068V25H6.468H6.868V16.09H6.468ZM6.468 25V24.6H3.498V25V25.4H6.468V25ZM3.498 25H3.898V7.18H3.498H3.098V25H3.498ZM8.943 14.935V15.335C9.71433 15.335 10.5178 15.1421 11.3495 14.7725L11.187 14.407L11.0245 14.0415C10.2722 14.3759 9.57967 14.535 8.943 14.535V14.935ZM11.187 14.407L11.3578 14.7687C12.2194 14.3618 12.9427 13.7298 13.5285 12.8862L13.2 12.658L12.8715 12.4298C12.3573 13.1702 11.7386 13.7042 11.0162 14.0453L11.187 14.407ZM13.2 12.658L13.5243 12.8922C14.1562 12.0172 14.458 10.9288 14.458 9.655H14.058H13.658C13.658 10.8012 13.3878 11.7148 12.8757 12.4238L13.2 12.658ZM14.058 9.655H14.458C14.458 8.38124 14.1562 7.29278 13.5243 6.4178L13.2 6.652L12.8757 6.88619C13.3878 7.59521 13.658 8.50875 13.658 9.655H14.058ZM13.2 6.652L13.5285 6.42384C12.9416 5.57868 12.2157 4.95547 11.3495 4.57047L11.187 4.936L11.0245 5.30152C11.7423 5.62053 12.3584 6.14132 12.8715 6.88016L13.2 6.652ZM11.187 4.936L11.3578 4.5743C10.5251 4.18108 9.71867 3.975 8.943 3.975V4.375V4.775C9.57533 4.775 10.2649 4.94292 11.0162 5.2977L11.187 4.936ZM8.943 4.375V3.975C8.13511 3.975 7.27725 4.09038 6.37099 4.31694L6.468 4.705L6.56501 5.09306C7.41875 4.87962 8.21089 4.775 8.943 4.775V4.375ZM6.468 4.705H6.068V14.605H6.468H6.868V4.705H6.468ZM6.468 14.605L6.37099 14.9931C7.27725 15.2196 8.13511 15.335 8.943 15.335V14.935V14.535C8.21089 14.535 7.41875 14.4304 6.56501 14.2169L6.468 14.605Z" fill="url(#paint1_linear_575_28636)" mask="url(#path-1-outside-1_575_28636)"/>
<path d="M32.6364 0C32.6364 7.63636 30.4546 9.81818 23.1819 12C29.7273 13.4545 32.6364 14.5455 33.0065 24C32.6364 14.5455 35.1819 12 45.0065 12C36.2792 11.8502 32.6364 7.63636 32.6364 0Z" fill="url(#paint2_linear_575_28636)"/>
<path d="M24.4656 1.09094C24.4656 3.8678 23.6659 4.66119 21 5.45458C23.3993 5.9835 24.4656 6.3802 24.6013 9.81822C24.4656 6.3802 25.3987 5.45458 29 5.45458C25.8009 5.40012 24.4656 3.8678 24.4656 1.09094Z" fill="url(#paint3_linear_575_28636)"/>
<path d="M24.4656 1.09094C24.4656 3.8678 23.6659 4.66119 21 5.45458C23.3993 5.9835 24.4656 6.3802 24.6013 9.81822C24.4656 6.3802 25.3987 5.45458 29 5.45458C25.8009 5.40012 24.4656 3.8678 24.4656 1.09094Z" fill="url(#paint4_linear_575_28636)"/>
<path d="M24.4656 14.9091C24.4656 17.6859 23.6659 18.4793 21 19.2727C23.3993 19.8016 24.4656 20.1983 24.6013 23.6363C24.4656 20.1983 25.3987 19.2727 29 19.2727C25.8009 19.2182 24.4656 17.6859 24.4656 14.9091Z" fill="url(#paint5_linear_575_28636)"/>
<path d="M24.4656 14.9091C24.4656 17.6859 23.6659 18.4793 21 19.2727C23.3993 19.8016 24.4656 20.1983 24.6013 23.6363C24.4656 20.1983 25.3987 19.2727 29 19.2727C25.8009 19.2182 24.4656 17.6859 24.4656 14.9091Z" fill="url(#paint6_linear_575_28636)"/>
<defs>
<linearGradient id="paint0_linear_575_28636" x1="0" y1="12" x2="12.2523" y2="12" gradientUnits="userSpaceOnUse">
<stop stop-color="#01395A"/>
<stop offset="1" stop-color="#027AC0"/>
</linearGradient>
<linearGradient id="paint1_linear_575_28636" x1="0" y1="12" x2="12.2523" y2="12" gradientUnits="userSpaceOnUse">
<stop stop-color="#01395A"/>
<stop offset="1" stop-color="#027AC0"/>
</linearGradient>
<linearGradient id="paint2_linear_575_28636" x1="34.0942" y1="-3.66585e-08" x2="35.4465" y2="34.1457" gradientUnits="userSpaceOnUse">
<stop stop-color="#D543FF"/>
<stop offset="1" stop-color="#2770F2"/>
</linearGradient>
<linearGradient id="paint3_linear_575_28636" x1="18.3696" y1="1.09096" x2="891.069" y2="880.804" gradientUnits="userSpaceOnUse">
<stop stop-color="#8A2BE2"/>
<stop offset="1" stop-color="#00BFFF"/>
</linearGradient>
<linearGradient id="paint4_linear_575_28636" x1="23.266" y1="0.958711" x2="23.7097" y2="13.379" gradientUnits="userSpaceOnUse">
<stop stop-color="#D543FF"/>
<stop offset="1" stop-color="#2770F2"/>
</linearGradient>
<linearGradient id="paint5_linear_575_28636" x1="18.3696" y1="14.9091" x2="891.069" y2="894.622" gradientUnits="userSpaceOnUse">
<stop stop-color="#8A2BE2"/>
<stop offset="1" stop-color="#00BFFF"/>
</linearGradient>
<linearGradient id="paint6_linear_575_28636" x1="23.266" y1="14.7768" x2="23.7097" y2="27.1971" gradientUnits="userSpaceOnUse">
<stop stop-color="#D543FF"/>
<stop offset="1" stop-color="#2770F2"/>
</linearGradient>
</defs>
</svg>
