<svg width="4" height="14" viewBox="0 0 4 14" fill="none" xmlns="http://www.w3.org/2000/svg">
<path d="M1.66666 10.5C2.08332 10.5208 2.43749 10.6667 2.72916 10.9375C2.99999 11.2292 3.14582 11.5833 3.16666 12C3.14582 12.4167 2.99999 12.7708 2.72916 13.0625C2.43749 13.3333 2.08332 13.4792 1.66666 13.5C1.24999 13.4792 0.895823 13.3333 0.604156 13.0625C0.333323 12.7708 0.18749 12.4167 0.166656 12C0.18749 11.5833 0.333323 11.2292 0.604156 10.9375C0.895823 10.6667 1.24999 10.5208 1.66666 10.5ZM1.66666 5.5C2.08332 5.52083 2.43749 5.66667 2.72916 5.9375C2.99999 6.22917 3.14582 6.58333 3.16666 7C3.14582 7.41667 2.99999 7.77083 2.72916 8.0625C2.43749 8.33333 2.08332 8.47917 1.66666 8.5C1.24999 8.47917 0.895823 8.33333 0.604156 8.0625C0.333323 7.77083 0.18749 7.41667 0.166656 7C0.18749 6.58333 0.333323 6.22917 0.604156 5.9375C0.895823 5.66667 1.24999 5.52083 1.66666 5.5ZM1.66666 3.5C1.24999 3.47917 0.895823 3.33333 0.604156 3.0625C0.333323 2.77083 0.18749 2.41667 0.166656 2C0.18749 1.58333 0.333323 1.22917 0.604156 0.9375C0.895823 0.666667 1.24999 0.520833 1.66666 0.5C2.08332 0.520833 2.43749 0.666667 2.72916 0.9375C2.99999 1.22917 3.14582 1.58333 3.16666 2C3.14582 2.41667 2.99999 2.77083 2.72916 3.0625C2.43749 3.33333 2.08332 3.47917 1.66666 3.5Z" fill="#808284"/>
</svg>
