<svg width="12" height="24" viewBox="0 0 12 24" fill="none" xmlns="http://www.w3.org/2000/svg">
<path d="M11.4062 6.90625C11.8021 7.30208 12 7.78125 12 8.34375V18C11.9792 18.5625 11.7812 19.0312 11.4062 19.4062C11.0312 19.7812 10.5625 19.9792 10 20H2C1.4375 19.9792 0.96875 19.7812 0.59375 19.4062C0.21875 19.0312 0.0208333 18.5625 0 18L0 6C0.0208333 5.4375 0.21875 4.96875 0.59375 4.59375C0.96875 4.21875 1.4375 4.02083 2 4H7.65625C8.21875 4 8.69792 4.19792 9.09375 4.59375L11.4062 6.90625ZM10.5 18H10.4688V9H8C7.70833 9 7.46875 8.90625 7.28125 8.71875C7.09375 8.53125 7 8.29167 7 8V5.5H2C1.6875 5.54167 1.52083 5.70833 1.5 6V18C1.52083 18.3125 1.6875 18.4792 2 18.5H10C10.3125 18.4792 10.4792 18.3125 10.5 18ZM3 12.75C3.04167 12.2917 3.29167 12.0417 3.75 12H8.25C8.70833 12.0417 8.95833 12.2917 9 12.75C8.95833 13.2083 8.70833 13.4583 8.25 13.5H3.75C3.29167 13.4583 3.04167 13.2083 3 12.75ZM8.25 15C8.70833 15.0417 8.95833 15.2917 9 15.75C8.95833 16.2083 8.70833 16.4583 8.25 16.5H3.75C3.29167 16.4583 3.04167 16.2083 3 15.75C3.04167 15.2917 3.29167 15.0417 3.75 15H8.25Z" fill="#4D4D4D"/>
</svg>
