<svg width="250" height="212" viewBox="0 0 250 212" fill="none" xmlns="http://www.w3.org/2000/svg">
<g clip-path="url(#clip0_357_5497)">
<path d="M160.236 92.3717V174.951C160.236 177.294 159.304 179.542 157.644 181.199C155.985 182.855 153.734 183.786 151.387 183.786H80.5903C78.2432 183.786 75.9923 182.855 74.3327 181.199C72.6731 179.542 71.7407 177.294 71.7407 174.951V75.5555C71.7407 73.2122 72.6731 70.965 74.3327 69.308C75.9923 67.6511 78.2432 66.7203 80.5903 66.7203H134.219C134.219 66.7203 160.657 91.9447 160.236 92.3717Z" fill="#F2FBFF" stroke="#0273AE" stroke-width="1.5" stroke-linecap="round" stroke-linejoin="round"/>
<path d="M159.941 92.4895H143.274C140.927 92.4895 138.676 91.5587 137.017 89.9018C135.357 88.2449 134.425 85.9976 134.425 83.6544V67.2725" stroke="#0273AE" stroke-width="1.5" stroke-linecap="round" stroke-linejoin="round"/>
<path d="M172.036 104.152V186.731C172.036 189.075 171.103 191.322 169.444 192.979C167.784 194.636 165.533 195.567 163.186 195.567H92.3896C90.0425 195.567 87.7916 194.636 86.132 192.979C84.4724 191.322 83.54 189.075 83.54 186.731V87.3357C83.54 84.9925 84.4724 82.7452 86.132 81.0883C87.7916 79.4314 90.0425 78.5005 92.3896 78.5005H146.018C146.018 78.5005 172.456 103.725 172.036 104.152Z" fill="#F2FBFF" stroke="#0273AE" stroke-width="1.5" stroke-linecap="round" stroke-linejoin="round"/>
<path d="M171.741 104.27H155.074C152.727 104.27 150.476 103.339 148.817 101.682C147.157 100.025 146.225 97.7778 146.225 95.4346V79.0527" stroke="#0273AE" stroke-width="1.5" stroke-linecap="round" stroke-linejoin="round"/>
<path d="M170.597 185.642C189.948 185.642 205.634 169.981 205.634 150.662C205.634 131.343 189.948 115.682 170.597 115.682C151.247 115.682 135.561 131.343 135.561 150.662C135.561 169.981 151.247 185.642 170.597 185.642Z" fill="white" stroke="#0273AE" stroke-width="1.5" stroke-miterlimit="10"/>
<path d="M186.63 168.833C181.803 173.078 175.484 175.235 169.064 174.829C162.645 174.423 156.649 171.487 152.397 166.668" fill="white"/>
<path d="M186.63 168.833C181.803 173.078 175.484 175.235 169.064 174.829C162.645 174.423 156.649 171.487 152.397 166.668" stroke="#0273AE" stroke-width="3" stroke-miterlimit="10"/>
<path d="M154.565 132.528C159.388 128.282 165.701 126.122 172.119 126.521C178.536 126.92 184.533 129.845 188.791 134.655" fill="white"/>
<path d="M154.565 132.528C159.388 128.282 165.701 126.122 172.119 126.521C178.536 126.92 184.533 129.845 188.791 134.655" stroke="#0273AE" stroke-width="3" stroke-miterlimit="10"/>
<path d="M137.554 179.709L137.549 179.704C134.599 176.359 129.491 176.036 126.141 178.981L105.913 196.767C102.563 199.712 102.239 204.811 105.19 208.156L105.195 208.162C108.145 211.506 113.252 211.83 116.602 208.884L136.83 191.098C140.18 188.153 140.504 183.054 137.554 179.709Z" fill="#F2FBFF" stroke="#0273AE" stroke-width="1.5" stroke-miterlimit="10"/>
<path d="M136.969 179.037L143.71 173.11" stroke="#0273AE" stroke-width="3" stroke-miterlimit="10"/>
<path d="M170.339 177.05C185.01 177.05 196.903 165.176 196.903 150.529C196.903 135.883 185.01 124.009 170.339 124.009C155.669 124.009 143.776 135.883 143.776 150.529C143.776 165.176 155.669 177.05 170.339 177.05Z" fill="#F2FBFF"/>
<path d="M166.188 165.041H162.744V168.487H166.188V165.041ZM157.611 141.79H179.351C179.784 141.794 180.198 141.967 180.505 142.273C180.811 142.578 180.985 142.992 180.988 143.424V151.567C180.991 151.783 180.949 151.997 180.865 152.196C180.781 152.395 180.658 152.574 180.502 152.723C180.353 152.878 180.175 153 179.977 153.083C179.779 153.165 179.566 153.206 179.351 153.202H167.832C167.164 153.192 166.5 153.317 165.881 153.57C165.263 153.823 164.702 154.199 164.233 154.674C163.751 155.142 163.372 155.703 163.118 156.324C162.864 156.945 162.742 157.612 162.758 158.282V160.049H166.202V158.297C166.208 157.864 166.383 157.45 166.691 157.145C166.998 156.839 167.413 156.666 167.847 156.662H179.351C180.7 156.66 181.992 156.124 182.945 155.172C183.897 154.219 184.432 152.928 184.432 151.582V143.424C184.448 142.751 184.325 142.081 184.071 141.457C183.818 140.833 183.439 140.267 182.957 139.795C182.491 139.317 181.932 138.94 181.314 138.687C180.697 138.434 180.034 138.31 179.366 138.322L157.626 138.278L157.611 141.79Z" fill="#0273AE"/>
<path d="M97.5518 112.369H139.587" stroke="#0273AE" stroke-width="1.5" stroke-linecap="round" stroke-linejoin="round"/>
<path d="M97.5518 124.149H137.375" stroke="#0273AE" stroke-width="1.5" stroke-linecap="round" stroke-linejoin="round"/>
<path d="M97.5518 135.929H127.788" stroke="#0273AE" stroke-width="1.5" stroke-linecap="round" stroke-linejoin="round"/>
<path d="M97.5518 147.709H127.788" stroke="#0273AE" stroke-width="1.5" stroke-linecap="round" stroke-linejoin="round"/>
<path opacity="0.5" d="M42.9059 24.709H41.254V28.0075H37.9575V29.6567H41.254V32.9478H42.9059V29.6567H46.2024V28.0075H42.9059V24.709Z" fill="#ABE5FF"/>
<path opacity="0.5" d="M246.696 140.862H245.052V144.153H241.748V145.802H245.052V149.094H246.696V145.802H250V144.153H246.696V140.862Z" fill="#ABE5FF"/>
<path opacity="0.5" d="M17.3308 158.982H15.6788V162.28H12.375V163.922H15.6788V167.22H17.3308V163.922H20.6272V162.28H17.3308V158.982Z" fill="#ABE5FF"/>
<path opacity="0.26" d="M205.443 30.4814H203.798V33.7725H200.494V35.4217H203.798V38.7128H205.443V35.4217H208.746V33.7725H205.443V30.4814Z" fill="#ABE5FF"/>
<path opacity="0.5" d="M129.123 8.23144C131.171 8.23144 132.832 6.57336 132.832 4.52803C132.832 2.48269 131.171 0.824615 129.123 0.824615C127.074 0.824615 125.413 2.48269 125.413 4.52803C125.413 6.57336 127.074 8.23144 129.123 8.23144Z" stroke="#ABE5FF" stroke-width="2.24" stroke-miterlimit="10"/>
<path opacity="0.26" d="M4.53561 95.5524C6.58428 95.5524 8.24505 93.8943 8.24505 91.849C8.24505 89.8036 6.58428 88.1456 4.53561 88.1456C2.48694 88.1456 0.826172 89.8036 0.826172 91.849C0.826172 93.8943 2.48694 95.5524 4.53561 95.5524Z" stroke="#ABE5FF" stroke-width="2.24" stroke-miterlimit="10"/>
<path opacity="0.26" d="M245.465 82.3733C247.513 82.3733 249.174 80.7152 249.174 78.6699C249.174 76.6245 247.513 74.9665 245.465 74.9665C243.416 74.9665 241.755 76.6245 241.755 78.6699C241.755 80.7152 243.416 82.3733 245.465 82.3733Z" stroke="#ABE5FF" stroke-width="2.24" stroke-miterlimit="10"/>
</g>
<defs>
<clipPath id="clip0_357_5497">
<rect width="250" height="212" fill="white"/>
</clipPath>
</defs>
</svg>
