<svg width="12" height="16" viewBox="0 0 12 16" fill="none" xmlns="http://www.w3.org/2000/svg">
<path d="M11.4062 2.90625C11.8021 3.30208 12 3.78125 12 4.34375V14C11.9792 14.5625 11.7812 15.0312 11.4062 15.4062C11.0312 15.7812 10.5625 15.9792 10 16H2C1.4375 15.9792 0.96875 15.7812 0.59375 15.4062C0.21875 15.0312 0.0208333 14.5625 0 14L0 2C0.0208333 1.4375 0.21875 0.96875 0.59375 0.59375C0.96875 0.21875 1.4375 0.0208333 2 0H7.65625C8.21875 0 8.69792 0.197917 9.09375 0.59375L11.4062 2.90625ZM10.5 14H10.4688V5H8C7.70833 5 7.46875 4.90625 7.28125 4.71875C7.09375 4.53125 7 4.29167 7 4V1.5H2C1.6875 1.54167 1.52083 1.70833 1.5 2V14C1.52083 14.3125 1.6875 14.4792 2 14.5H10C10.3125 14.4792 10.4792 14.3125 10.5 14ZM3 8.75C3.04167 8.29167 3.29167 8.04167 3.75 8H8.25C8.70833 8.04167 8.95833 8.29167 9 8.75C8.95833 9.20833 8.70833 9.45833 8.25 9.5H3.75C3.29167 9.45833 3.04167 9.20833 3 8.75ZM8.25 11C8.70833 11.0417 8.95833 11.2917 9 11.75C8.95833 12.2083 8.70833 12.4583 8.25 12.5H3.75C3.29167 12.4583 3.04167 12.2083 3 11.75C3.04167 11.2917 3.29167 11.0417 3.75 11H8.25Z" fill="#4D4D4D"/>
</svg>
