<svg width="17" height="14" viewBox="0 0 17 14" fill="none" xmlns="http://www.w3.org/2000/svg">
<path d="M3.5625 4.75C3.41667 4.91667 3.23958 4.98958 3.03125 4.96875C2.80208 5.01042 2.61458 4.9375 2.46875 4.75L1.21875 3.5C0.927083 3.16667 0.927083 2.82292 1.21875 2.46875C1.57292 2.17708 1.92708 2.17708 2.28125 2.46875L2.96875 3.15625L4.6875 1.25C5.02083 0.9375 5.375 0.916667 5.75 1.1875C6.0625 1.52083 6.08333 1.875 5.8125 2.25L3.5625 4.75ZM3.5625 9.75C3.41667 9.91667 3.23958 9.98958 3.03125 9.96875C2.80208 10.0104 2.61458 9.9375 2.46875 9.75L1.21875 8.5C0.927083 8.16667 0.927083 7.82292 1.21875 7.46875C1.57292 7.17708 1.92708 7.17708 2.28125 7.46875L2.96875 8.15625L4.6875 6.25C5.02083 5.9375 5.375 5.91667 5.75 6.1875C6.0625 6.52083 6.08333 6.875 5.8125 7.25L3.5625 9.75ZM7.75 3.75C7.29167 3.70833 7.04167 3.45833 7 3C7.04167 2.54167 7.29167 2.29167 7.75 2.25H16.25C16.7083 2.29167 16.9583 2.54167 17 3C16.9583 3.45833 16.7083 3.70833 16.25 3.75H7.75ZM7 8C7.04167 7.54167 7.29167 7.29167 7.75 7.25H16.25C16.7083 7.29167 16.9583 7.54167 17 8C16.9583 8.45833 16.7083 8.70833 16.25 8.75H7.75C7.29167 8.70833 7.04167 8.45833 7 8ZM6 13C6.04167 12.5417 6.29167 12.2917 6.75 12.25H16.25C16.7083 12.2917 16.9583 12.5417 17 13C16.9583 13.4583 16.7083 13.7083 16.25 13.75H6.75C6.29167 13.7083 6.04167 13.4583 6 13ZM3 14C2.70833 14 2.46875 13.9062 2.28125 13.7188C2.09375 13.5312 2 13.2917 2 13C2 12.7083 2.09375 12.4688 2.28125 12.2812C2.46875 12.0938 2.70833 12 3 12C3.29167 12 3.53125 12.0938 3.71875 12.2812C3.90625 12.4688 4 12.7083 4 13C4 13.2917 3.90625 13.5312 3.71875 13.7188C3.53125 13.9062 3.29167 14 3 14Z" fill="#4D4D4D"/>
</svg>
