<svg width="16" height="20" viewBox="0 0 16 20" fill="none" xmlns="http://www.w3.org/2000/svg">
<path d="M2.50008 19.9272C1.99591 19.9272 1.56432 19.7477 1.20529 19.3887C0.846262 19.0297 0.666748 18.5981 0.666748 18.0939V8.92725C0.666748 8.42308 0.846262 7.99148 1.20529 7.63245C1.56432 7.27343 1.99591 7.09391 2.50008 7.09391H3.41675V5.26058C3.41675 3.99252 3.86362 2.91162 4.75737 2.01787C5.65112 1.12412 6.73203 0.677246 8.00008 0.677246C9.26814 0.677246 10.349 1.12412 11.2428 2.01787C12.1365 2.91162 12.5834 3.99252 12.5834 5.26058V7.09391H13.5001C14.0042 7.09391 14.4358 7.27343 14.7949 7.63245C15.1539 7.99148 15.3334 8.42308 15.3334 8.92725V18.0939C15.3334 18.5981 15.1539 19.0297 14.7949 19.3887C14.4358 19.7477 14.0042 19.9272 13.5001 19.9272H2.50008ZM2.50008 18.0939H13.5001V8.92725H2.50008V18.0939ZM8.00008 15.3439C8.50425 15.3439 8.93585 15.1644 9.29487 14.8054C9.6539 14.4463 9.83342 14.0147 9.83342 13.5106C9.83342 13.0064 9.6539 12.5748 9.29487 12.2158C8.93585 11.8568 8.50425 11.6772 8.00008 11.6772C7.49592 11.6772 7.06432 11.8568 6.70529 12.2158C6.34626 12.5748 6.16675 13.0064 6.16675 13.5106C6.16675 14.0147 6.34626 14.4463 6.70529 14.8054C7.06432 15.1644 7.49592 15.3439 8.00008 15.3439ZM5.25008 7.09391H10.7501V5.26058C10.7501 4.49669 10.4827 3.84739 9.948 3.31266C9.41328 2.77794 8.76397 2.51058 8.00008 2.51058C7.23619 2.51058 6.58689 2.77794 6.05217 3.31266C5.51744 3.84739 5.25008 4.49669 5.25008 5.26058V7.09391Z" fill="#0273AE"/>
</svg>
