<svg width="14" height="15" viewBox="0 0 14 15" fill="none" xmlns="http://www.w3.org/2000/svg">
<path d="M8.53125 9.875C8.51302 10.3125 8.36719 10.6771 8.09375 10.9688C7.80208 11.2422 7.4375 11.388 7 11.4062C6.5625 11.388 6.19792 11.2422 5.90625 10.9688C5.63281 10.6771 5.48698 10.3125 5.46875 9.875C5.50521 9.23698 5.78776 8.77214 6.31641 8.48047V3.50391C6.31641 3.32161 6.38021 3.16667 6.50781 3.03906C6.63542 2.91146 6.79036 2.84766 6.97266 2.84766C7.17318 2.84766 7.33724 2.91146 7.46484 3.03906C7.59245 3.16667 7.65625 3.32161 7.65625 3.50391V8.48047C8.20312 8.77214 8.49479 9.23698 8.53125 9.875ZM3.5 4.625C3.5 4.36979 3.58203 4.16016 3.74609 3.99609C3.91016 3.83203 4.11979 3.75 4.375 3.75C4.63021 3.75 4.83984 3.83203 5.00391 3.99609C5.16797 4.16016 5.25 4.36979 5.25 4.625C5.25 4.88021 5.16797 5.08984 5.00391 5.25391C4.83984 5.41797 4.63021 5.5 4.375 5.5C4.11979 5.5 3.91016 5.41797 3.74609 5.25391C3.58203 5.08984 3.5 4.88021 3.5 4.625ZM3.9375 7.25C3.9375 7.50521 3.85547 7.71484 3.69141 7.87891C3.52734 8.04297 3.31771 8.125 3.0625 8.125C2.80729 8.125 2.59766 8.04297 2.43359 7.87891C2.26953 7.71484 2.1875 7.50521 2.1875 7.25C2.1875 6.99479 2.26953 6.78516 2.43359 6.62109C2.59766 6.45703 2.80729 6.375 3.0625 6.375C3.31771 6.375 3.52734 6.45703 3.69141 6.62109C3.85547 6.78516 3.9375 6.99479 3.9375 7.25ZM10.0625 7.25C10.0625 6.99479 10.1445 6.78516 10.3086 6.62109C10.4727 6.45703 10.6823 6.375 10.9375 6.375C11.1927 6.375 11.4023 6.45703 11.5664 6.62109C11.7305 6.78516 11.8125 6.99479 11.8125 7.25C11.8125 7.50521 11.7305 7.71484 11.5664 7.87891C11.4023 8.04297 11.1927 8.125 10.9375 8.125C10.6823 8.125 10.4727 8.04297 10.3086 7.87891C10.1445 7.71484 10.0625 7.50521 10.0625 7.25ZM10.5 4.625C10.5 4.88021 10.418 5.08984 10.2539 5.25391C10.0898 5.41797 9.88021 5.5 9.625 5.5C9.36979 5.5 9.16016 5.41797 8.99609 5.25391C8.83203 5.08984 8.75 4.88021 8.75 4.625C8.75 4.36979 8.83203 4.16016 8.99609 3.99609C9.16016 3.83203 9.36979 3.75 9.625 3.75C9.88021 3.75 10.0898 3.83203 10.2539 3.99609C10.418 4.16016 10.5 4.36979 10.5 4.625ZM0 7.25C0.0182292 5.9375 0.33724 4.76172 0.957031 3.72266C1.57682 2.66536 2.41536 1.82682 3.47266 1.20703C4.51172 0.58724 5.6875 0.268229 7 0.25C8.3125 0.268229 9.48828 0.58724 10.5273 1.20703C11.5846 1.82682 12.4232 2.66536 13.043 3.72266C13.6628 4.76172 13.9818 5.9375 14 7.25C13.9818 8.5625 13.6628 9.73828 13.043 10.7773C12.4232 11.8346 11.5846 12.6732 10.5273 13.293C9.48828 13.9128 8.3125 14.2318 7 14.25C5.6875 14.2318 4.51172 13.9128 3.47266 13.293C2.41536 12.6732 1.57682 11.8346 0.957031 10.7773C0.33724 9.73828 0.0182292 8.5625 0 7.25ZM7 12.9375C8.60417 12.901 9.94401 12.3451 11.0195 11.2695C12.0951 10.194 12.651 8.85417 12.6875 7.25C12.651 5.64583 12.0951 4.30599 11.0195 3.23047C9.94401 2.15495 8.60417 1.59896 7 1.5625C5.39583 1.59896 4.05599 2.15495 2.98047 3.23047C1.90495 4.30599 1.34896 5.64583 1.3125 7.25C1.34896 8.85417 1.90495 10.194 2.98047 11.2695C4.05599 12.3451 5.39583 12.901 7 12.9375Z" fill="#0273AE"/>
</svg>
