<svg width="16" height="16" viewBox="0 0 16 16" fill="none" xmlns="http://www.w3.org/2000/svg">
<path d="M10.7917 11.5417L11.8542 10.4792L8.75 7.375V3H7.25V8L10.7917 11.5417ZM8 16C6.8975 16 5.86146 15.7917 4.89187 15.375C3.92229 14.9583 3.07292 14.3854 2.34375 13.6562C1.61458 12.9271 1.04167 12.0767 0.625 11.105C0.208333 10.1333 0 9.09514 0 7.99042C0 6.88569 0.208333 5.84722 0.625 4.875C1.04167 3.90278 1.61458 3.05556 2.34375 2.33333C3.07292 1.61111 3.92333 1.04167 4.895 0.625C5.86667 0.208333 6.90486 0 8.00958 0C9.1143 0 10.1528 0.21 11.1252 0.63C12.0974 1.05 12.9432 1.62 13.6625 2.34C14.3817 3.06 14.951 3.90667 15.3706 4.88C15.7902 5.85333 16 6.89333 16 8C16 9.1025 15.7917 10.1385 15.375 11.1081C14.9583 12.0777 14.3889 12.9271 13.6667 13.6562C12.9444 14.3854 12.0963 14.9583 11.1223 15.375C10.1483 15.7917 9.1075 16 8 16ZM8.01 14.5C9.80819 14.5 11.3394 13.8646 12.6037 12.5937C13.8679 11.3229 14.5 9.78833 14.5 7.99C14.5 6.1918 13.8679 4.66056 12.6037 3.39625C11.3394 2.13208 9.80819 1.5 8.01 1.5C6.21167 1.5 4.67708 2.13208 3.40625 3.39625C2.13542 4.66056 1.5 6.1918 1.5 7.99C1.5 9.78833 2.13542 11.3229 3.40625 12.5937C4.67708 13.8646 6.21167 14.5 8.01 14.5Z" fill="#F7630C"/>
</svg>
