<svg width="16" height="16" viewBox="0 0 16 16" fill="none" xmlns="http://www.w3.org/2000/svg">
<path d="M10.7917 11.5417L11.8542 10.4792L8.75001 7.375V3H7.25001V8L10.7917 11.5417ZM8.00001 16C6.89751 16 5.86147 15.7917 4.89189 15.375C3.92231 14.9583 3.07293 14.3854 2.34377 13.6562C1.6146 12.9271 1.04168 12.0767 0.625015 11.105C0.208349 10.1333 1.52588e-05 9.09514 1.52588e-05 7.99042C1.52588e-05 6.88569 0.208349 5.84722 0.625015 4.875C1.04168 3.90278 1.6146 3.05556 2.34377 2.33333C3.07293 1.61111 3.92335 1.04167 4.89501 0.625C5.86668 0.208333 6.90488 0 8.0096 0C9.11432 0 10.1529 0.21 11.1252 0.63C12.0974 1.05 12.9432 1.62 13.6625 2.34C14.3817 3.06 14.9511 3.90667 15.3706 4.88C15.7902 5.85333 16 6.89333 16 8C16 9.1025 15.7917 10.1385 15.375 11.1081C14.9583 12.0777 14.3889 12.9271 13.6667 13.6562C12.9445 14.3854 12.0963 14.9583 11.1223 15.375C10.1483 15.7917 9.10751 16 8.00001 16ZM8.01001 14.5C9.80821 14.5 11.3395 13.8646 12.6038 12.5937C13.8679 11.3229 14.5 9.78833 14.5 7.99C14.5 6.1918 13.8679 4.66056 12.6038 3.39625C11.3395 2.13208 9.80821 1.5 8.01001 1.5C6.21168 1.5 4.6771 2.13208 3.40627 3.39625C2.13543 4.66056 1.50002 6.1918 1.50002 7.99C1.50002 9.78833 2.13543 11.3229 3.40627 12.5937C4.6771 13.8646 6.21168 14.5 8.01001 14.5Z" fill="#FFB900"/>
</svg>
