<svg width="16" height="13" viewBox="0 0 16 13" fill="none" xmlns="http://www.w3.org/2000/svg">
<path d="M14.8359 10.6523C15.0547 11.0534 15.0547 11.4362 14.8359 11.8008C14.6354 12.1654 14.2982 12.3568 13.8242 12.375H2.17578C1.70182 12.3568 1.36458 12.1654 1.16406 11.8008C0.945312 11.4362 0.936198 11.0534 1.13672 10.6523L6.96094 0.699219C7.23438 0.316406 7.58073 0.125 8 0.125C8.41927 0.125 8.75651 0.316406 9.01172 0.699219L14.8359 10.6523ZM2.44922 11.0625H13.5508L7.97266 1.57422L2.44922 11.0625ZM8 8.46484C8.23698 8.46484 8.4375 8.54688 8.60156 8.71094C8.76562 8.875 8.84766 9.08464 8.84766 9.33984C8.84766 9.57682 8.76562 9.77734 8.60156 9.94141C8.4375 10.1055 8.23698 10.1875 8 10.1875C7.76302 10.1875 7.5625 10.1055 7.39844 9.94141C7.23438 9.77734 7.15234 9.57682 7.15234 9.33984C7.15234 9.08464 7.23438 8.875 7.39844 8.71094C7.5625 8.54688 7.76302 8.46484 8 8.46484ZM7.34375 4.28125C7.38021 3.88021 7.59896 3.66146 8 3.625C8.40104 3.66146 8.61979 3.88021 8.65625 4.28125V6.90625C8.61979 7.30729 8.40104 7.52604 8 7.5625C7.59896 7.52604 7.38021 7.30729 7.34375 6.90625V4.28125Z" fill="#0273AE"/>
</svg>
