<svg width="11" height="15" viewBox="0 0 11 15" fill="none" xmlns="http://www.w3.org/2000/svg">
<path d="M9.98047 2.79297C10.3268 3.13932 10.5 3.55859 10.5 4.05078V12.5C10.4818 12.9922 10.3086 13.4023 9.98047 13.7305C9.65234 14.0586 9.24219 14.2318 8.75 14.25H1.75C1.25781 14.2318 0.847656 14.0586 0.519531 13.7305C0.191406 13.4023 0.0182292 12.9922 0 12.5V2C0.0182292 1.50781 0.191406 1.09766 0.519531 0.769531C0.847656 0.441406 1.25781 0.268229 1.75 0.25H6.69922C7.19141 0.25 7.61068 0.423177 7.95703 0.769531L9.98047 2.79297ZM9.1875 12.5H9.16016V4.625H7C6.74479 4.625 6.53516 4.54297 6.37109 4.37891C6.20703 4.21484 6.125 4.00521 6.125 3.75V1.5625H1.75C1.47656 1.59896 1.33073 1.74479 1.3125 2V12.5C1.33073 12.7734 1.47656 12.9193 1.75 12.9375H8.75C9.02344 12.9193 9.16927 12.7734 9.1875 12.5ZM2.625 7.90625C2.66146 7.50521 2.88021 7.28646 3.28125 7.25H7.21875C7.61979 7.28646 7.83854 7.50521 7.875 7.90625C7.83854 8.30729 7.61979 8.52604 7.21875 8.5625H3.28125C2.88021 8.52604 2.66146 8.30729 2.625 7.90625ZM7.21875 9.875C7.61979 9.91146 7.83854 10.1302 7.875 10.5312C7.83854 10.9323 7.61979 11.151 7.21875 11.1875H3.28125C2.88021 11.151 2.66146 10.9323 2.625 10.5312C2.66146 10.1302 2.88021 9.91146 3.28125 9.875H7.21875Z" fill="#0273AE"/>
</svg>
