<svg width="40" height="41" viewBox="0 0 40 41" fill="none" xmlns="http://www.w3.org/2000/svg">
<path d="M25.6875 25.6484C26.0521 26.0911 26.0521 26.5339 25.6875 26.9766C25.2448 27.3411 24.8021 27.3411 24.3594 26.9766L19.75 22.3281L15.1016 26.9766C14.6589 27.3411 14.2161 27.3411 13.7734 26.9766C13.4089 26.5339 13.4089 26.0911 13.7734 25.6484L18.4219 21L13.7734 16.3125C13.4089 15.8698 13.4089 15.4271 13.7734 14.9844C14.2161 14.6198 14.6589 14.6198 15.1016 14.9844L19.75 19.6719L24.3984 15.0234C24.8411 14.6589 25.2839 14.6589 25.7266 15.0234C26.0911 15.4661 26.0911 15.9089 25.7266 16.3516L21.0781 21L25.6875 25.6484Z" fill="#000A16" fill-opacity="0.7"/>
</svg>
