<svg width="11" height="15" viewBox="0 0 11 15" fill="none" xmlns="http://www.w3.org/2000/svg">
<path d="M2.1875 7.25C2.1875 6.99479 2.26953 6.78516 2.43359 6.62109C2.59766 6.45703 2.80729 6.375 3.0625 6.375H7.4375C7.69271 6.375 7.90234 6.45703 8.06641 6.62109C8.23047 6.78516 8.3125 6.99479 8.3125 7.25V9C8.3125 9.25521 8.23047 9.46484 8.06641 9.62891C7.90234 9.79297 7.69271 9.875 7.4375 9.875H3.0625C2.80729 9.875 2.59766 9.79297 2.43359 9.62891C2.26953 9.46484 2.1875 9.25521 2.1875 9V7.25ZM9.98047 2.79297C10.3268 3.13932 10.5 3.55859 10.5 4.05078V12.5C10.4818 12.9922 10.3086 13.4023 9.98047 13.7305C9.65234 14.0586 9.24219 14.2318 8.75 14.25H1.75C1.25781 14.2318 0.847656 14.0586 0.519531 13.7305C0.191406 13.4023 0.0182292 12.9922 0 12.5V2C0.0182292 1.50781 0.191406 1.09766 0.519531 0.769531C0.847656 0.441406 1.25781 0.268229 1.75 0.25H6.69922C7.19141 0.25 7.61068 0.423177 7.95703 0.769531L9.98047 2.79297ZM9.1875 12.5H9.16016V4.625H7C6.74479 4.625 6.53516 4.54297 6.37109 4.37891C6.20703 4.21484 6.125 4.00521 6.125 3.75V1.5625H1.75C1.47656 1.59896 1.33073 1.74479 1.3125 2V12.5C1.33073 12.7734 1.47656 12.9193 1.75 12.9375H8.75C9.02344 12.9193 9.16927 12.7734 9.1875 12.5ZM2.625 3.75C2.35156 3.73177 2.20573 3.58594 2.1875 3.3125C2.20573 3.03906 2.35156 2.89323 2.625 2.875H4.8125C5.08594 2.89323 5.23177 3.03906 5.25 3.3125C5.23177 3.58594 5.08594 3.73177 4.8125 3.75H2.625ZM2.625 5.5C2.35156 5.48177 2.20573 5.33594 2.1875 5.0625C2.20573 4.78906 2.35156 4.64323 2.625 4.625H4.8125C5.08594 4.64323 5.23177 4.78906 5.25 5.0625C5.23177 5.33594 5.08594 5.48177 4.8125 5.5H2.625ZM7.875 10.75C8.14844 10.7682 8.29427 10.9141 8.3125 11.1875C8.29427 11.4609 8.14844 11.6068 7.875 11.625H5.6875C5.41406 11.6068 5.26823 11.4609 5.25 11.1875C5.26823 10.9141 5.41406 10.7682 5.6875 10.75H7.875Z" fill="#0273AE"/>
</svg>
