<svg width="16" height="24" viewBox="0 0 16 24" fill="none" xmlns="http://www.w3.org/2000/svg">
<path d="M14 7C14.5625 7.02083 15.0312 7.21875 15.4062 7.59375C15.7812 7.96875 15.9792 8.4375 16 9V17C15.9792 17.5625 15.7812 18.0312 15.4062 18.4062C15.0312 18.7812 14.5625 18.9792 14 19H2C1.4375 18.9792 0.96875 18.7812 0.59375 18.4062C0.21875 18.0312 0.0208333 17.5625 0 17L0 7C0.0208333 6.4375 0.21875 5.96875 0.59375 5.59375C0.96875 5.21875 1.4375 5.02083 2 5H5.6875C6.22917 5 6.69792 5.19792 7.09375 5.59375L8.625 7H14ZM2 6.5C1.6875 6.52083 1.52083 6.6875 1.5 7V10H14.5V9C14.4792 8.6875 14.3125 8.52083 14 8.5H8L6.03125 6.65625C5.92708 6.55208 5.8125 6.5 5.6875 6.5H2ZM14 17.5C14.3125 17.4792 14.4792 17.3125 14.5 17V11.5H1.5V17C1.52083 17.3125 1.6875 17.4792 2 17.5H14Z" fill="#4D4D4D"/>
</svg>
