<svg width="18" height="25" viewBox="0 0 18 25" fill="none" xmlns="http://www.w3.org/2000/svg">
<path d="M9 12.5C8.15625 12.4688 7.45312 12.1719 6.89062 11.6094C6.32812 11.0469 6.03125 10.3438 6 9.5C6.03125 8.65625 6.32812 7.95312 6.89062 7.39062C7.45312 6.82812 8.15625 6.53125 9 6.5C9.84375 6.53125 10.5469 6.82812 11.1094 7.39062C11.6719 7.95312 11.9688 8.65625 12 9.5C11.9688 10.3438 11.6719 11.0469 11.1094 11.6094C10.5469 12.1719 9.84375 12.4688 9 12.5ZM15 0.5C15.8438 0.53125 16.5469 0.828125 17.1094 1.39062C17.6719 1.95312 17.9688 2.65625 18 3.5V21.5C17.9688 22.3438 17.6719 23.0469 17.1094 23.6094C16.5469 24.1719 15.8438 24.4688 15 24.5H3C2.15625 24.4688 1.45312 24.1719 0.890625 23.6094C0.328125 23.0469 0.03125 22.3438 0 21.5V3.5C0.03125 2.65625 0.328125 1.95312 0.890625 1.39062C1.45312 0.828125 2.15625 0.53125 3 0.5H15ZM15.75 21.5V3.5C15.7188 3.03125 15.4688 2.78125 15 2.75H3C2.53125 2.78125 2.28125 3.03125 2.25 3.5V21.5C2.28125 21.9688 2.53125 22.2188 3 22.25H15C15.4688 22.2188 15.7188 21.9688 15.75 21.5ZM10.5 14C11.5625 14.0312 12.4531 14.3906 13.1719 15.0781C13.8594 15.7969 14.2188 16.6875 14.25 17.75C14.2188 18.2188 13.9688 18.4688 13.5 18.5H4.5C4.03125 18.4688 3.78125 18.2188 3.75 17.75C3.78125 16.6875 4.14062 15.7969 4.82812 15.0781C5.54688 14.3906 6.4375 14.0312 7.5 14H10.5Z" fill="#FFB900"/>
</svg>
