<svg width="30" height="25" viewBox="0 0 30 25" fill="none" xmlns="http://www.w3.org/2000/svg">
<path d="M2.29688 22.25H19.1719L20.6719 23.7969C20.3906 24.2344 19.9531 24.4688 19.3594 24.5H1.64062C1.17188 24.5 0.78125 24.3438 0.46875 24.0312C0.15625 23.7188 0 23.3281 0 22.8594C0.0625 20.5781 0.859375 18.6719 2.39062 17.1406C3.92188 15.6094 5.82812 14.8125 8.10938 14.75H12.8906C14.2031 14.75 15.4062 15.0469 16.5 15.6406V17.7031C16.5 17.8906 16.5156 18.0625 16.5469 18.2188C16.5469 18.25 16.5469 18.2812 16.5469 18.3125C15.5156 17.4688 14.2969 17.0312 12.8906 17H8.10938C6.57812 17.0312 5.26562 17.5312 4.17188 18.5C3.10938 19.5 2.48438 20.75 2.29688 22.25ZM10.5 12.5C8.8125 12.4688 7.39062 11.8906 6.23438 10.7656C5.10938 9.60938 4.53125 8.1875 4.5 6.5C4.53125 4.8125 5.10938 3.39062 6.23438 2.23438C7.39062 1.10938 8.8125 0.53125 10.5 0.5C12.1875 0.53125 13.6094 1.10938 14.7656 2.23438C15.8906 3.39062 16.4688 4.8125 16.5 6.5C16.4688 8.1875 15.8906 9.60938 14.7656 10.7656C13.6094 11.8906 12.1875 12.4688 10.5 12.5ZM10.5 2.75C9.4375 2.78125 8.54688 3.14062 7.82812 3.82812C7.14062 4.54688 6.78125 5.4375 6.75 6.5C6.78125 7.5625 7.14062 8.45312 7.82812 9.17188C8.54688 9.85938 9.4375 10.2188 10.5 10.25C11.5625 10.2188 12.4531 9.85938 13.1719 9.17188C13.8594 8.45312 14.2188 7.5625 14.25 6.5C14.2188 5.4375 13.8594 4.54688 13.1719 3.82812C12.4531 3.14062 11.5625 2.78125 10.5 2.75ZM29.5781 17.6094C29.8594 17.9219 30 18.2656 30 18.6406C30 19.0469 29.8438 19.4062 29.5312 19.7188L25.2188 24.0781C24.9062 24.3594 24.5469 24.5 24.1406 24.5C23.7656 24.5 23.4219 24.3594 23.1094 24.0781L18.8438 19.8125C18.2812 19.25 18 18.5469 18 17.7031V14C18 13.5625 18.1406 13.2031 18.4219 12.9219C18.7031 12.6406 19.0625 12.5 19.5 12.5H23.2031C24.0156 12.5 24.7188 12.7969 25.3125 13.3906L29.5781 17.6094ZM21 16.625C21.6875 16.5625 22.0625 16.1875 22.125 15.5C22.0625 14.8125 21.6875 14.4375 21 14.375C20.3125 14.4375 19.9375 14.8125 19.875 15.5C19.9375 16.1875 20.3125 16.5625 21 16.625Z" fill="#107C10"/>
</svg>
