<svg width="19" height="19" viewBox="0 0 19 19" fill="none" xmlns="http://www.w3.org/2000/svg">
<path d="M17.7188 16.8086C18.0703 17.207 18.082 17.6055 17.7539 18.0039C17.5898 18.168 17.3906 18.25 17.1562 18.25C16.9453 18.25 16.7344 18.168 16.5234 18.0039L11.8125 13.293C10.5469 14.3242 9.03516 14.8516 7.27734 14.875C5.21484 14.8281 3.50391 14.1133 2.14453 12.7305C0.761719 11.3477 0.046875 9.625 0 7.5625C0.046875 5.5 0.75 3.77734 2.10938 2.39453C3.49219 1.01172 5.21484 0.296875 7.27734 0.25C9.33984 0.296875 11.0625 1.01172 12.4453 2.39453C13.8281 3.77734 14.543 5.5 14.5898 7.5625C14.5664 9.29688 14.0391 10.8086 13.0078 12.0977L17.7188 16.8086ZM1.6875 7.5625C1.73438 9.15625 2.28516 10.4805 3.33984 11.5352C4.39453 12.5898 5.71875 13.1406 7.3125 13.1875C8.90625 13.1406 10.2305 12.5898 11.2852 11.5352C12.3398 10.4805 12.8906 9.15625 12.9375 7.5625C12.8906 5.96875 12.3398 4.64453 11.2852 3.58984C10.2305 2.53516 8.90625 1.98437 7.3125 1.9375C5.71875 1.98437 4.39453 2.53516 3.33984 3.58984C2.28516 4.64453 1.73438 5.96875 1.6875 7.5625Z" fill="#4D4D4D"/>
</svg>
