<svg width="28" height="28" viewBox="0 0 28 28" fill="none" xmlns="http://www.w3.org/2000/svg">
<path d="M11 14C11.0208 13.1458 11.3125 12.4375 11.875 11.875C12.4375 11.3125 13.1458 11.0208 14 11C14.8542 11.0208 15.5625 11.3125 16.125 11.875C16.6875 12.4375 16.9792 13.1458 17 14C16.9792 14.8542 16.6875 15.5625 16.125 16.125C15.5625 16.6875 14.8542 16.9792 14 17C13.1458 16.9792 12.4375 16.6875 11.875 16.125C11.3125 15.5625 11.0208 14.8542 11 14ZM14 12.5C13.5833 12.5208 13.2292 12.6667 12.9375 12.9375C12.6667 13.2292 12.5208 13.5833 12.5 14C12.5208 14.4167 12.6667 14.7708 12.9375 15.0625C13.2292 15.3333 13.5833 15.4792 14 15.5C14.4167 15.4792 14.7708 15.3333 15.0625 15.0625C15.3333 14.7708 15.4792 14.4167 15.5 14C15.4792 13.5833 15.3333 13.2292 15.0625 12.9375C14.7708 12.6667 14.4167 12.5208 14 12.5ZM15.1562 6C15.5104 6 15.8229 6.10417 16.0938 6.3125C16.3646 6.52083 16.5417 6.80208 16.625 7.15625L16.875 8.15625C17.125 8.28125 17.375 8.42708 17.625 8.59375L18.625 8.3125C18.9583 8.20833 19.2812 8.21875 19.5938 8.34375C19.9062 8.46875 20.1562 8.6875 20.3438 9L21.5 11C21.6667 11.3125 21.7292 11.6354 21.6875 11.9688C21.6458 12.3021 21.5 12.5938 21.25 12.8438L20.5 13.5312C20.5 13.6979 20.5 13.8542 20.5 14C20.5 14.1458 20.5 14.2917 20.5 14.4375L21.25 15.1562C21.5 15.4062 21.6458 15.6979 21.6875 16.0312C21.7292 16.3646 21.6667 16.6875 21.5 17L20.3438 19C20.1562 19.3125 19.9062 19.5312 19.5938 19.6562C19.2812 19.7812 18.9583 19.7917 18.625 19.6875L17.625 19.4062C17.375 19.5521 17.125 19.6979 16.875 19.8438L16.625 20.8438C16.5417 21.1979 16.3646 21.4792 16.0938 21.6875C15.8229 21.8958 15.5104 22 15.1562 22H12.8438C12.4896 22 12.1771 21.8958 11.9062 21.6875C11.6354 21.4792 11.4583 21.1979 11.375 20.8438L11.125 19.8438C10.875 19.7188 10.625 19.5729 10.375 19.4062L9.34375 19.6875C9.01042 19.7917 8.6875 19.7812 8.375 19.6562C8.08333 19.5312 7.84375 19.3125 7.65625 19L6.5 17C6.3125 16.6875 6.25 16.3646 6.3125 16.0312C6.35417 15.6979 6.5 15.4062 6.75 15.1562L7.5 14.4375C7.5 14.2917 7.5 14.1354 7.5 13.9688C7.5 13.8438 7.5 13.6979 7.5 13.5312L6.75 12.8438C6.5 12.5938 6.35417 12.3021 6.3125 11.9688C6.25 11.6354 6.3125 11.3125 6.5 11L7.65625 9C7.84375 8.6875 8.08333 8.46875 8.375 8.34375C8.6875 8.21875 9.01042 8.20833 9.34375 8.3125L10.375 8.59375C10.625 8.42708 10.875 8.28125 11.125 8.15625L11.375 7.15625C11.4583 6.80208 11.6354 6.52083 11.9062 6.3125C12.1771 6.10417 12.4896 6 12.8438 6H15.1562ZM12.4375 9.25L12.0625 9.375C11.6667 9.54167 11.3021 9.76042 10.9688 10.0312L10.6562 10.25L8.9375 9.75L7.78125 11.75L9.09375 13L9.03125 13.375C9.01042 13.5833 9 13.7917 9 14C9 14.2083 9.01042 14.4167 9.03125 14.625L9.09375 15L7.78125 16.25L8.9375 18.25L10.6562 17.75L10.9688 17.9688C11.3021 18.2396 11.6667 18.4583 12.0625 18.625L12.4375 18.75L12.8438 20.5H15.1562L15.5938 18.75L15.9375 18.625C16.3333 18.4583 16.6979 18.2396 17.0312 17.9688L17.3438 17.75L19.0625 18.25L20.2188 16.25L18.9062 15L18.9688 14.625C18.9896 14.4167 19 14.2083 19 14C19 13.7917 18.9896 13.5833 18.9688 13.375L18.9062 13L20.2188 11.75L19.0625 9.75L17.3438 10.25L17.0312 10.0312C16.6979 9.76042 16.3333 9.54167 15.9375 9.375L15.5938 9.25L15.1562 7.5H12.8438L12.4375 9.25Z" fill="#1A1A1A"/>
</svg>
