<svg width="16" height="16" viewBox="0 0 16 16" fill="none" xmlns="http://www.w3.org/2000/svg">
<path d="M5 8C5.02083 7.14583 5.3125 6.4375 5.875 5.875C6.4375 5.3125 7.14583 5.02083 8 5C8.85417 5.02083 9.5625 5.3125 10.125 5.875C10.6875 6.4375 10.9792 7.14583 11 8C10.9792 8.85417 10.6875 9.5625 10.125 10.125C9.5625 10.6875 8.85417 10.9792 8 11C7.14583 10.9792 6.4375 10.6875 5.875 10.125C5.3125 9.5625 5.02083 8.85417 5 8ZM8 6.5C7.58333 6.52083 7.22917 6.66667 6.9375 6.9375C6.66667 7.22917 6.52083 7.58333 6.5 8C6.52083 8.41667 6.66667 8.77083 6.9375 9.0625C7.22917 9.33333 7.58333 9.47917 8 9.5C8.41667 9.47917 8.77083 9.33333 9.0625 9.0625C9.33333 8.77083 9.47917 8.41667 9.5 8C9.47917 7.58333 9.33333 7.22917 9.0625 6.9375C8.77083 6.66667 8.41667 6.52083 8 6.5ZM9.15625 0C9.51042 0 9.82292 0.104167 10.0938 0.3125C10.3646 0.520833 10.5417 0.802083 10.625 1.15625L10.875 2.15625C11.125 2.28125 11.375 2.42708 11.625 2.59375L12.625 2.3125C12.9583 2.20833 13.2812 2.21875 13.5938 2.34375C13.9062 2.46875 14.1562 2.6875 14.3438 3L15.5 5C15.6667 5.3125 15.7292 5.63542 15.6875 5.96875C15.6458 6.30208 15.5 6.59375 15.25 6.84375L14.5 7.53125C14.5 7.69792 14.5 7.85417 14.5 8C14.5 8.14583 14.5 8.29167 14.5 8.4375L15.25 9.15625C15.5 9.40625 15.6458 9.69792 15.6875 10.0312C15.7292 10.3646 15.6667 10.6875 15.5 11L14.3438 13C14.1562 13.3125 13.9062 13.5312 13.5938 13.6562C13.2812 13.7812 12.9583 13.7917 12.625 13.6875L11.625 13.4062C11.375 13.5521 11.125 13.6979 10.875 13.8438L10.625 14.8438C10.5417 15.1979 10.3646 15.4792 10.0938 15.6875C9.82292 15.8958 9.51042 16 9.15625 16H6.84375C6.48958 16 6.17708 15.8958 5.90625 15.6875C5.63542 15.4792 5.45833 15.1979 5.375 14.8438L5.125 13.8438C4.875 13.7188 4.625 13.5729 4.375 13.4062L3.34375 13.6875C3.01042 13.7917 2.6875 13.7812 2.375 13.6562C2.08333 13.5312 1.84375 13.3125 1.65625 13L0.5 11C0.3125 10.6875 0.25 10.3646 0.3125 10.0312C0.354167 9.69792 0.5 9.40625 0.75 9.15625L1.5 8.4375C1.5 8.29167 1.5 8.13542 1.5 7.96875C1.5 7.84375 1.5 7.69792 1.5 7.53125L0.75 6.84375C0.5 6.59375 0.354167 6.30208 0.3125 5.96875C0.25 5.63542 0.3125 5.3125 0.5 5L1.65625 3C1.84375 2.6875 2.08333 2.46875 2.375 2.34375C2.6875 2.21875 3.01042 2.20833 3.34375 2.3125L4.375 2.59375C4.625 2.42708 4.875 2.28125 5.125 2.15625L5.375 1.15625C5.45833 0.802083 5.63542 0.520833 5.90625 0.3125C6.17708 0.104167 6.48958 0 6.84375 0H9.15625ZM6.4375 3.25L6.0625 3.375C5.66667 3.54167 5.30208 3.76042 4.96875 4.03125L4.65625 4.25L2.9375 3.75L1.78125 5.75L3.09375 7L3.03125 7.375C3.01042 7.58333 3 7.79167 3 8C3 8.20833 3.01042 8.41667 3.03125 8.625L3.09375 9L1.78125 10.25L2.9375 12.25L4.65625 11.75L4.96875 11.9688C5.30208 12.2396 5.66667 12.4583 6.0625 12.625L6.4375 12.75L6.84375 14.5H9.15625L9.59375 12.75L9.9375 12.625C10.3333 12.4583 10.6979 12.2396 11.0312 11.9688L11.3438 11.75L13.0625 12.25L14.2188 10.25L12.9062 9L12.9688 8.625C12.9896 8.41667 13 8.20833 13 8C13 7.79167 12.9896 7.58333 12.9688 7.375L12.9062 7L14.2188 5.75L13.0625 3.75L11.3438 4.25L11.0312 4.03125C10.6979 3.76042 10.3333 3.54167 9.9375 3.375L9.59375 3.25L9.15625 1.5H6.84375L6.4375 3.25Z" fill="#000A16" fill-opacity="0.7"/>
</svg>
