<svg width="16" height="24" viewBox="0 0 16 24" fill="none" xmlns="http://www.w3.org/2000/svg">
<path d="M5 12C5.02083 11.1458 5.3125 10.4375 5.875 9.875C6.4375 9.3125 7.14583 9.02083 8 9C8.85417 9.02083 9.5625 9.3125 10.125 9.875C10.6875 10.4375 10.9792 11.1458 11 12C10.9792 12.8542 10.6875 13.5625 10.125 14.125C9.5625 14.6875 8.85417 14.9792 8 15C7.14583 14.9792 6.4375 14.6875 5.875 14.125C5.3125 13.5625 5.02083 12.8542 5 12ZM8 10.5C7.58333 10.5208 7.22917 10.6667 6.9375 10.9375C6.66667 11.2292 6.52083 11.5833 6.5 12C6.52083 12.4167 6.66667 12.7708 6.9375 13.0625C7.22917 13.3333 7.58333 13.4792 8 13.5C8.41667 13.4792 8.77083 13.3333 9.0625 13.0625C9.33333 12.7708 9.47917 12.4167 9.5 12C9.47917 11.5833 9.33333 11.2292 9.0625 10.9375C8.77083 10.6667 8.41667 10.5208 8 10.5ZM9.15625 4C9.51042 4 9.82292 4.10417 10.0938 4.3125C10.3646 4.52083 10.5417 4.80208 10.625 5.15625L10.875 6.15625C11.125 6.28125 11.375 6.42708 11.625 6.59375L12.625 6.3125C12.9583 6.20833 13.2812 6.21875 13.5938 6.34375C13.9062 6.46875 14.1562 6.6875 14.3438 7L15.5 9C15.6667 9.3125 15.7292 9.63542 15.6875 9.96875C15.6458 10.3021 15.5 10.5938 15.25 10.8438L14.5 11.5312C14.5 11.6979 14.5 11.8542 14.5 12C14.5 12.1458 14.5 12.2917 14.5 12.4375L15.25 13.1562C15.5 13.4062 15.6458 13.6979 15.6875 14.0312C15.7292 14.3646 15.6667 14.6875 15.5 15L14.3438 17C14.1562 17.3125 13.9062 17.5312 13.5938 17.6562C13.2812 17.7812 12.9583 17.7917 12.625 17.6875L11.625 17.4062C11.375 17.5521 11.125 17.6979 10.875 17.8438L10.625 18.8438C10.5417 19.1979 10.3646 19.4792 10.0938 19.6875C9.82292 19.8958 9.51042 20 9.15625 20H6.84375C6.48958 20 6.17708 19.8958 5.90625 19.6875C5.63542 19.4792 5.45833 19.1979 5.375 18.8438L5.125 17.8438C4.875 17.7188 4.625 17.5729 4.375 17.4062L3.34375 17.6875C3.01042 17.7917 2.6875 17.7812 2.375 17.6562C2.08333 17.5312 1.84375 17.3125 1.65625 17L0.5 15C0.3125 14.6875 0.25 14.3646 0.3125 14.0312C0.354167 13.6979 0.5 13.4062 0.75 13.1562L1.5 12.4375C1.5 12.2917 1.5 12.1354 1.5 11.9688C1.5 11.8438 1.5 11.6979 1.5 11.5312L0.75 10.8438C0.5 10.5938 0.354167 10.3021 0.3125 9.96875C0.25 9.63542 0.3125 9.3125 0.5 9L1.65625 7C1.84375 6.6875 2.08333 6.46875 2.375 6.34375C2.6875 6.21875 3.01042 6.20833 3.34375 6.3125L4.375 6.59375C4.625 6.42708 4.875 6.28125 5.125 6.15625L5.375 5.15625C5.45833 4.80208 5.63542 4.52083 5.90625 4.3125C6.17708 4.10417 6.48958 4 6.84375 4H9.15625ZM6.4375 7.25L6.0625 7.375C5.66667 7.54167 5.30208 7.76042 4.96875 8.03125L4.65625 8.25L2.9375 7.75L1.78125 9.75L3.09375 11L3.03125 11.375C3.01042 11.5833 3 11.7917 3 12C3 12.2083 3.01042 12.4167 3.03125 12.625L3.09375 13L1.78125 14.25L2.9375 16.25L4.65625 15.75L4.96875 15.9688C5.30208 16.2396 5.66667 16.4583 6.0625 16.625L6.4375 16.75L6.84375 18.5H9.15625L9.59375 16.75L9.9375 16.625C10.3333 16.4583 10.6979 16.2396 11.0312 15.9688L11.3438 15.75L13.0625 16.25L14.2188 14.25L12.9062 13L12.9688 12.625C12.9896 12.4167 13 12.2083 13 12C13 11.7917 12.9896 11.5833 12.9688 11.375L12.9062 11L14.2188 9.75L13.0625 7.75L11.3438 8.25L11.0312 8.03125C10.6979 7.76042 10.3333 7.54167 9.9375 7.375L9.59375 7.25L9.15625 5.5H6.84375L6.4375 7.25Z" fill="#000A16" fill-opacity="0.7"/>
</svg>
