<svg width="32" height="32" viewBox="0 0 32 32" fill="none" xmlns="http://www.w3.org/2000/svg">
<path d="M4.57141 8.00003C4.57141 7.36885 5.08309 6.85718 5.71427 6.85718H27.4286C28.0598 6.85718 28.5714 7.36885 28.5714 8.00003C28.5714 8.63122 28.0598 9.14289 27.4286 9.14289H5.71427C5.08309 9.14289 4.57141 8.63122 4.57141 8.00003Z" fill="#4D4D4D"/>
<path d="M4.57141 15.9998C4.57141 15.3686 5.08309 14.8568 5.71427 14.8568L18.2857 14.8572C18.9169 14.8572 19.4286 15.3688 19.4286 16C19.4286 16.6312 18.9169 17.1429 18.2857 17.1429L5.71427 17.1426C5.08309 17.1426 4.57141 16.6309 4.57141 15.9998Z" fill="#4D4D4D"/>
<path d="M5.71427 22.8569C5.08309 22.8569 4.57141 23.3686 4.57141 23.9998C4.57141 24.6309 5.08309 25.1425 5.71427 25.1425H25.1428C25.774 25.1425 26.2857 24.6309 26.2857 23.9998C26.2857 23.3686 25.774 22.8569 25.1428 22.8569H5.71427Z" fill="#4D4D4D"/>
</svg>
