<svg width="28" height="28" viewBox="0 0 28 28" fill="none" xmlns="http://www.w3.org/2000/svg">
<path d="M12 20.25C11.9583 19.7917 11.7083 19.5417 11.25 19.5H9C8.58333 19.4792 8.22917 19.3333 7.9375 19.0625C7.66667 18.7708 7.52083 18.4167 7.5 18V10C7.52083 9.58333 7.66667 9.22917 7.9375 8.9375C8.22917 8.66667 8.58333 8.52083 9 8.5H11.25C11.7083 8.45833 11.9583 8.20833 12 7.75C11.9583 7.29167 11.7083 7.04167 11.25 7H9C8.14583 7.02083 7.4375 7.3125 6.875 7.875C6.3125 8.4375 6.02083 9.14583 6 10V18C6.02083 18.8542 6.3125 19.5625 6.875 20.125C7.4375 20.6875 8.14583 20.9792 9 21H11.25C11.7083 20.9583 11.9583 20.7083 12 20.25ZM21.8125 13.5C22.0833 13.8333 22.0625 14.1667 21.75 14.5L17.7812 18.75C17.6146 18.9167 17.4271 19 17.2188 19C17.0521 19 16.8854 18.9271 16.7188 18.7812C16.4062 18.4479 16.3958 18.1042 16.6875 17.75L19.5 14.75H11.7188C11.2812 14.7083 11.0417 14.4583 11 14C11.0417 13.5417 11.2812 13.2917 11.7188 13.25H19.5L16.7188 10.25C16.4479 9.89583 16.4583 9.55208 16.75 9.21875C17.125 8.92708 17.4792 8.9375 17.8125 9.25L21.8125 13.5Z" fill="#E0181A"/>
</svg>
