<svg width="19" height="15" viewBox="0 0 19 15" fill="none" xmlns="http://www.w3.org/2000/svg">
<path d="M4.25391 5.0625C4.27214 4.7526 4.38151 4.4974 4.58203 4.29688C4.80078 4.07812 5.05599 3.96875 5.34766 3.96875C5.67578 3.96875 5.9401 4.07812 6.14062 4.29688C6.34115 4.4974 6.44141 4.7526 6.44141 5.0625C6.44141 5.3724 6.34115 5.6276 6.14062 5.82812C5.9401 6.04688 5.67578 6.15625 5.34766 6.15625C5.05599 6.15625 4.80078 6.04688 4.58203 5.82812C4.38151 5.6276 4.27214 5.3724 4.25391 5.0625ZM6.66016 0.878906L6.85156 1.64453C7.10677 1.75391 7.35286 1.89974 7.58984 2.08203L8.32812 1.86328C8.49219 1.80859 8.62891 1.84505 8.73828 1.97266C9.19401 2.46484 9.52214 3.02995 9.72266 3.66797C9.77734 3.83203 9.74089 3.97786 9.61328 4.10547L9.03906 4.625C9.07552 4.73438 9.08464 4.85286 9.06641 4.98047C9.06641 5.01693 9.06641 5.05339 9.06641 5.08984C9.06641 5.1263 9.06641 5.17188 9.06641 5.22656C9.08464 5.31771 9.08464 5.40885 9.06641 5.5L9.61328 6.01953C9.74089 6.14714 9.77734 6.29297 9.72266 6.45703C9.52214 7.09505 9.19401 7.66016 8.73828 8.15234C8.62891 8.27995 8.49219 8.32552 8.32812 8.28906L7.61719 8.07031C7.38021 8.2526 7.125 8.40755 6.85156 8.53516L6.66016 9.24609C6.60547 9.41016 6.50521 9.51042 6.35938 9.54688C6.04948 9.61979 5.71224 9.65625 5.34766 9.65625C5.03776 9.65625 4.70964 9.61979 4.36328 9.54688C4.21745 9.51042 4.1263 9.41016 4.08984 9.24609L3.92578 8.53516C3.63411 8.40755 3.36979 8.2526 3.13281 8.07031L2.42188 8.28906C2.25781 8.32552 2.12109 8.27995 2.01172 8.15234C1.55599 7.66016 1.22786 7.09505 1.02734 6.45703C0.972656 6.29297 1.00911 6.14714 1.13672 6.01953L1.68359 5.5C1.66536 5.35417 1.65625 5.21745 1.65625 5.08984C1.65625 4.92578 1.66536 4.77083 1.68359 4.625L1.13672 4.10547C1.00911 3.97786 0.972656 3.83203 1.02734 3.66797C1.22786 3.02995 1.55599 2.46484 2.01172 1.97266C2.12109 1.84505 2.25781 1.80859 2.42188 1.86328L3.16016 2.08203C3.39714 1.89974 3.64323 1.75391 3.89844 1.64453L4.08984 0.878906C4.1263 0.714844 4.21745 0.614583 4.36328 0.578125C4.70964 0.505208 5.03776 0.46875 5.34766 0.46875C5.71224 0.46875 6.04948 0.505208 6.35938 0.578125C6.50521 0.614583 6.60547 0.714844 6.66016 0.878906ZM2.72266 5.08984C2.72266 5.14453 2.73177 5.19922 2.75 5.25391C2.75 5.30859 2.75911 5.35417 2.77734 5.39062L2.83203 5.91016L2.20312 6.51172C2.29427 6.71224 2.41276 6.90365 2.55859 7.08594L3.35156 6.86719L3.78906 7.19531C3.97135 7.32292 4.15365 7.43229 4.33594 7.52344L4.85547 7.74219L5.04688 8.53516C5.15625 8.55339 5.25651 8.5625 5.34766 8.5625C5.47526 8.5625 5.59375 8.55339 5.70312 8.53516L5.89453 7.74219L6.41406 7.52344C6.61458 7.43229 6.79688 7.32292 6.96094 7.19531L7.39844 6.86719L8.19141 7.08594C8.33724 6.90365 8.45573 6.71224 8.54688 6.51172L7.91797 5.91016L7.97266 5.39062C7.99089 5.31771 7.99089 5.25391 7.97266 5.19922C7.97266 5.16276 7.97266 5.1263 7.97266 5.08984C7.97266 5.05339 7.97266 5.00781 7.97266 4.95312C7.99089 4.88021 7.99089 4.81641 7.97266 4.76172L7.91797 4.21484L8.54688 3.61328C8.45573 3.41276 8.33724 3.22135 8.19141 3.03906L7.37109 3.28516L6.93359 2.95703C6.91536 2.9388 6.89714 2.92969 6.87891 2.92969C6.73307 2.82031 6.56901 2.72917 6.38672 2.65625L5.92188 2.4375L5.70312 1.58984C5.59375 1.57161 5.47526 1.5625 5.34766 1.5625C5.25651 1.5625 5.15625 1.57161 5.04688 1.58984L4.82812 2.4375L4.33594 2.65625C4.15365 2.72917 3.98047 2.82943 3.81641 2.95703L3.37891 3.28516L2.55859 3.03906C2.41276 3.22135 2.29427 3.41276 2.20312 3.61328L2.83203 4.21484L2.77734 4.76172C2.75911 4.79818 2.75 4.83464 2.75 4.87109C2.73177 4.94401 2.72266 5.01693 2.72266 5.08984ZM13.6875 8.78125C13.9974 8.78125 14.2526 8.89062 14.4531 9.10938C14.6719 9.3099 14.7812 9.5651 14.7812 9.875C14.7812 10.1849 14.6719 10.4401 14.4531 10.6406C14.2526 10.8594 13.9974 10.9688 13.6875 10.9688C13.3776 10.9688 13.1224 10.8594 12.9219 10.6406C12.7031 10.4401 12.5938 10.1849 12.5938 9.875C12.5938 9.5651 12.7031 9.3099 12.9219 9.10938C13.1224 8.89062 13.3776 8.78125 13.6875 8.78125ZM16.9141 6.92188L16.668 7.66016C16.8503 7.89714 16.9961 8.14323 17.1055 8.39844L17.8711 8.58984C18.0352 8.6263 18.1354 8.71745 18.1719 8.86328C18.2448 9.20964 18.2812 9.54688 18.2812 9.875C18.2812 10.2214 18.2448 10.5495 18.1719 10.8594C18.1354 11.0052 18.0352 11.1055 17.8711 11.1602L17.1055 11.3516C16.9961 11.6068 16.8503 11.8529 16.668 12.0898L16.9141 12.8281C16.9505 12.9922 16.9049 13.1289 16.7773 13.2383C16.2852 13.694 15.7201 14.0221 15.082 14.2227C14.918 14.2773 14.7721 14.2409 14.6445 14.1133L14.0977 13.5391C13.9701 13.5755 13.8242 13.5938 13.6602 13.5938C13.5143 13.5938 13.3776 13.5846 13.25 13.5664L12.7305 14.1133C12.6029 14.2409 12.457 14.2773 12.293 14.2227C11.6549 14.0221 11.0898 13.694 10.5977 13.2383C10.4701 13.1289 10.4336 12.9922 10.4883 12.8281L10.6797 12.1172C10.4974 11.8802 10.3424 11.625 10.2148 11.3516L9.50391 11.1602C9.33984 11.1055 9.23958 11.0052 9.20312 10.8594C9.13021 10.5495 9.08464 10.2214 9.06641 9.875C9.08464 9.54688 9.13021 9.20964 9.20312 8.86328C9.23958 8.71745 9.33984 8.6263 9.50391 8.58984L10.2148 8.42578C10.3424 8.13411 10.4974 7.86979 10.6797 7.63281L10.4883 6.92188C10.4336 6.75781 10.4701 6.62109 10.5977 6.51172C11.0898 6.05599 11.6549 5.72786 12.293 5.52734C12.457 5.47266 12.6029 5.50911 12.7305 5.63672L13.25 6.18359C13.3776 6.16536 13.5143 6.15625 13.6602 6.15625C13.8242 6.15625 13.9701 6.16536 14.0977 6.18359L14.6445 5.63672C14.7721 5.50911 14.918 5.47266 15.082 5.52734C15.7201 5.72786 16.2852 6.05599 16.7773 6.51172C16.9049 6.62109 16.9505 6.75781 16.9141 6.92188ZM13.6602 7.25C13.569 7.25 13.4688 7.25911 13.3594 7.27734L12.8398 7.33203L12.2383 6.70312C12.0378 6.79427 11.8464 6.91276 11.6641 7.05859L11.8828 7.82422L11.5273 8.28906C11.418 8.47135 11.3177 8.65365 11.2266 8.83594L11.0078 9.35547L10.2148 9.54688C10.1966 9.65625 10.1875 9.76562 10.1875 9.875C10.1875 9.98438 10.1966 10.0938 10.2148 10.2031L11.0078 10.3945L11.2266 10.9141C11.3177 11.0964 11.418 11.2786 11.5273 11.4609L11.8828 11.8984L11.6641 12.6914C11.8464 12.8372 12.0378 12.9557 12.2383 13.0469L12.8398 12.418L13.3594 12.4727C13.4688 12.4909 13.569 12.5 13.6602 12.5C13.7695 12.5 13.8789 12.4909 13.9883 12.4727L14.5352 12.418L15.1367 13.0469C15.3372 12.9557 15.5286 12.8372 15.7109 12.6914L15.4648 11.8711L15.793 11.4336C15.8112 11.4154 15.8203 11.4062 15.8203 11.4062C15.9297 11.2422 16.0208 11.069 16.0938 10.8867L16.3125 10.4219L17.1602 10.2031C17.1784 10.0938 17.1875 9.98438 17.1875 9.875C17.1875 9.76562 17.1784 9.65625 17.1602 9.54688L16.3125 9.32812L16.0938 8.83594C16.0208 8.65365 15.9206 8.48047 15.793 8.31641L15.4648 7.87891L15.7109 7.05859C15.5286 6.91276 15.3372 6.79427 15.1367 6.70312L14.5352 7.33203L13.9883 7.27734C13.8789 7.25911 13.7695 7.25 13.6602 7.25Z" fill="#0273AE"/>
</svg>
