<svg width="12" height="13" viewBox="0 0 12 13" fill="none" xmlns="http://www.w3.org/2000/svg">
<path d="M0.492188 4.25391C0.328125 4.08984 0.236979 3.88932 0.21875 3.65234C0.21875 3.41536 0.300781 3.20573 0.464844 3.02344L2.84375 0.398438C3.02604 0.216146 3.24479 0.125 3.5 0.125C3.75521 0.125 3.97396 0.216146 4.15625 0.398438L6.5625 3.02344C6.72656 3.20573 6.79948 3.41536 6.78125 3.65234C6.76302 3.88932 6.67188 4.08984 6.50781 4.25391C6.30729 4.41797 6.09766 4.5 5.87891 4.5C5.64193 4.48177 5.43229 4.38151 5.25 4.19922L4.375 3.24219V11.5C4.375 11.7552 4.29297 11.9648 4.12891 12.1289C3.96484 12.293 3.75521 12.375 3.5 12.375C3.24479 12.375 3.03516 12.293 2.87109 12.1289C2.70703 11.9648 2.625 11.7552 2.625 11.5V3.24219L1.75 4.19922C1.58594 4.38151 1.38542 4.48177 1.14844 4.5C0.911458 4.51823 0.692708 4.4362 0.492188 4.25391ZM5.74219 8.24609C5.94271 8.08203 6.15234 8 6.37109 8C6.60807 8.01823 6.81771 8.11849 7 8.30078L7.875 9.25781V1C7.875 0.744792 7.95703 0.535156 8.12109 0.371094C8.28516 0.207031 8.49479 0.125 8.75 0.125C9.00521 0.125 9.21484 0.207031 9.37891 0.371094C9.54297 0.535156 9.625 0.744792 9.625 1V9.25781L10.4727 8.30078C10.6367 8.11849 10.8281 8.01823 11.0469 8C11.2839 7.98177 11.5026 8.0638 11.7031 8.24609C11.8854 8.41016 11.9766 8.61068 11.9766 8.84766C11.9948 9.08464 11.9219 9.29427 11.7578 9.47656L9.37891 12.1016C9.19661 12.2839 8.97786 12.375 8.72266 12.375C8.46745 12.375 8.25781 12.2839 8.09375 12.1016L5.6875 9.47656C5.54167 9.29427 5.46875 9.08464 5.46875 8.84766C5.48698 8.61068 5.57812 8.41016 5.74219 8.24609Z" fill="white"/>
</svg>
