<svg width="20" height="24" viewBox="0 0 20 24" fill="none" xmlns="http://www.w3.org/2000/svg">
<path d="M10 14C9.08333 13.9792 8.3125 13.6667 7.6875 13.0625C7.08333 12.4375 6.78125 11.6667 6.78125 10.75C6.80208 9.83333 7.11458 9.0625 7.71875 8.4375C8.32292 7.83333 9.08333 7.52083 10 7.5C10.8958 7.52083 11.6562 7.83333 12.2812 8.4375C12.8854 9.0625 13.1979 9.83333 13.2188 10.75C13.1979 11.6667 12.8854 12.4375 12.2812 13.0625C11.6771 13.6667 10.9167 13.9792 10 14ZM10 9C9.5 9.02083 9.08333 9.1875 8.75 9.5C8.4375 9.83333 8.27083 10.25 8.25 10.75C8.27083 11.25 8.4375 11.6667 8.75 12C9.08333 12.3125 9.5 12.4792 10 12.5C10.5 12.4792 10.9062 12.3125 11.2188 12C11.5521 11.6667 11.7292 11.25 11.75 10.75C11.7292 10.25 11.5521 9.83333 11.2188 9.5C10.9062 9.1875 10.5 9.02083 10 9ZM4 9C3.29167 8.97917 2.69792 8.73958 2.21875 8.28125C1.76042 7.80208 1.52083 7.20833 1.5 6.5C1.52083 5.79167 1.76042 5.19792 2.21875 4.71875C2.69792 4.26042 3.29167 4.02083 4 4C4.70833 4.02083 5.30208 4.26042 5.78125 4.71875C6.23958 5.19792 6.47917 5.79167 6.5 6.5C6.47917 7.20833 6.23958 7.80208 5.78125 8.28125C5.30208 8.73958 4.70833 8.97917 4 9ZM16 9C15.2917 8.97917 14.6979 8.73958 14.2188 8.28125C13.7604 7.80208 13.5208 7.20833 13.5 6.5C13.5208 5.79167 13.7604 5.19792 14.2188 4.71875C14.6979 4.26042 15.2917 4.02083 16 4C16.7083 4.02083 17.3021 4.26042 17.7812 4.71875C18.2396 5.19792 18.4792 5.79167 18.5 6.5C18.4792 7.20833 18.2396 7.80208 17.7812 8.28125C17.3021 8.73958 16.7083 8.97917 16 9ZM5.75 10.75C5.77083 11.8125 6.11458 12.7292 6.78125 13.5H0.5625C0.229167 13.4583 0.0416667 13.2604 0 12.9062C0.0208333 12.0938 0.291667 11.4062 0.8125 10.8438C1.33333 10.3021 1.97917 10.0208 2.75 10H4.6875C5.08333 10 5.45833 10.0833 5.8125 10.25C5.79167 10.2917 5.78125 10.3333 5.78125 10.375C5.76042 10.5 5.75 10.625 5.75 10.75ZM17.25 10C18.0208 10.0208 18.6667 10.3021 19.1875 10.8438C19.7083 11.4062 19.9792 12.0938 20 12.9062C19.9583 13.2604 19.7708 13.4583 19.4375 13.5H19.3438C18.4688 12.5417 17.3542 12.0417 16 12C15.1875 12.0208 14.4479 12.2188 13.7812 12.5938C14.0729 12.0312 14.2292 11.4167 14.25 10.75C14.25 10.625 14.2396 10.5104 14.2188 10.4062C14.1979 10.3646 14.1875 10.3125 14.1875 10.25C14.5417 10.0833 14.9167 10 15.3125 10H17.25ZM12 18.5C12.2917 19.0833 12.6979 19.5833 13.2188 20H4.875C4.625 20 4.41667 19.9167 4.25 19.75C4.08333 19.6042 4 19.4062 4 19.1562C4.04167 17.9896 4.47917 17.0104 5.3125 16.2188C6.14583 15.4271 7.1875 15.0208 8.4375 15H11.5625C11.6042 15 11.6458 15 11.6875 15C11.7083 15.0208 11.7396 15.0312 11.7812 15.0312C11.5938 15.4896 11.5 15.9792 11.5 16.5H8.40625C7.71875 16.5208 7.11458 16.7083 6.59375 17.0625C6.09375 17.4375 5.75 17.9167 5.5625 18.5H12ZM19.3125 15.4688C19.3542 15.5521 19.3333 15.6042 19.25 15.625L18.6562 15.9688C18.7188 16.3021 18.7188 16.6354 18.6562 16.9688L19.25 17.3125C19.3333 17.3542 19.3646 17.4167 19.3438 17.5C19.1771 18.0208 18.9167 18.4688 18.5625 18.8438C18.5 18.9062 18.4375 18.9167 18.375 18.875L17.75 18.5312C17.5 18.7604 17.2188 18.9271 16.9062 19.0312V19.7188C16.9062 19.8021 16.8646 19.8542 16.7812 19.875C16.2812 20 15.7604 20 15.2188 19.875C15.1354 19.8542 15.0938 19.8021 15.0938 19.7188V19.0312C14.7812 18.9271 14.5 18.7604 14.25 18.5312L13.625 18.875C13.5625 18.9167 13.5 18.9062 13.4375 18.8438C13.0833 18.4688 12.8229 18.0208 12.6562 17.5C12.6354 17.4167 12.6562 17.3542 12.7188 17.3125L13.3438 16.9688C13.2812 16.6354 13.2812 16.3021 13.3438 15.9688L12.7188 15.625C12.6562 15.5833 12.6354 15.5208 12.6562 15.4375C12.8229 14.9375 13.0833 14.4896 13.4375 14.0938C13.5 14.0312 13.5625 14.0208 13.625 14.0625L14.25 14.4062C14.5 14.1979 14.7812 14.0312 15.0938 13.9062V13.2188C15.1146 13.1562 15.1458 13.1042 15.1875 13.0625C15.7083 12.9375 16.2292 12.9375 16.75 13.0625C16.8333 13.0833 16.875 13.1354 16.875 13.2188V13.9375C17.1875 14.0625 17.4688 14.2292 17.7188 14.4375L18.3438 14.0938C18.4062 14.0521 18.4688 14.0625 18.5312 14.125C18.8854 14.5 19.1458 14.9479 19.3125 15.4688ZM16 17.5C16.2917 17.5 16.5312 17.4062 16.7188 17.2188C16.9062 17.0312 17 16.7917 17 16.5C17 16.2083 16.9062 15.9688 16.7188 15.7812C16.5312 15.5938 16.2917 15.5 16 15.5C15.7083 15.5 15.4688 15.5938 15.2812 15.7812C15.0938 15.9688 15 16.2083 15 16.5C15 16.7917 15.0938 17.0312 15.2812 17.2188C15.4688 17.4062 15.7083 17.5 16 17.5Z" fill="#000A16" fill-opacity="0.7"/>
</svg>
