<svg width="13" height="16" viewBox="0 0 13 16" fill="none" xmlns="http://www.w3.org/2000/svg">
<path d="M5.8125 13L10.4167 8.39583L9.29166 7.27083L5.8125 10.75L4.125 9.04167L2.97916 10.1667L5.8125 13ZM2.16083 16C1.74805 16 1.39583 15.8531 1.10416 15.5594C0.812497 15.2656 0.666664 14.9125 0.666664 14.5V1.5C0.666664 1.0875 0.813539 0.734376 1.10729 0.440626C1.40104 0.146876 1.75416 0 2.16666 0H8.66666L12.6667 4V14.5C12.6667 14.9125 12.5197 15.2656 12.2258 15.5594C11.9319 15.8531 11.5786 16 11.1658 16H2.16083ZM7.66666 5V1.5H2.16666V14.5H11.1667V5H7.66666Z" fill="#418DED"/>
</svg>
