<svg width="20" height="24" viewBox="0 0 20 24" fill="none" xmlns="http://www.w3.org/2000/svg">
<path d="M10 14C9.08333 13.9792 8.3125 13.6667 7.6875 13.0625C7.08333 12.4375 6.78125 11.6667 6.78125 10.75C6.80208 9.83333 7.11458 9.0625 7.71875 8.4375C8.32292 7.83333 9.08333 7.52083 10 7.5C10.8958 7.52083 11.6562 7.83333 12.2812 8.4375C12.8854 9.0625 13.1979 9.83333 13.2188 10.75C13.1979 11.6667 12.8854 12.4375 12.2812 13.0625C11.6771 13.6667 10.9167 13.9792 10 14ZM10 9C9.5 9.02083 9.08333 9.1875 8.75 9.5C8.4375 9.83333 8.27083 10.25 8.25 10.75C8.27083 11.25 8.4375 11.6667 8.75 12C9.08333 12.3125 9.5 12.4792 10 12.5C10.5 12.4792 10.9062 12.3125 11.2188 12C11.5521 11.6667 11.7292 11.25 11.75 10.75C11.7292 10.25 11.5521 9.83333 11.2188 9.5C10.9062 9.1875 10.5 9.02083 10 9ZM16 9C15.2917 8.97917 14.6979 8.73958 14.2188 8.28125C13.7604 7.80208 13.5208 7.20833 13.5 6.5C13.5208 5.79167 13.7604 5.19792 14.2188 4.71875C14.6979 4.26042 15.2917 4.02083 16 4C16.7083 4.02083 17.3021 4.26042 17.7812 4.71875C18.2396 5.19792 18.4792 5.79167 18.5 6.5C18.4792 7.20833 18.2396 7.80208 17.7812 8.28125C17.3021 8.73958 16.7083 8.97917 16 9ZM11.5625 15C12.8125 15.0208 13.8542 15.4271 14.6875 16.2188C15.5208 17.0104 15.9583 17.9896 16 19.1562C16 19.4062 15.9167 19.6042 15.75 19.75C15.5833 19.9167 15.375 20 15.125 20H4.875C4.625 20 4.41667 19.9167 4.25 19.75C4.08333 19.6042 4 19.4062 4 19.1562C4.04167 17.9896 4.47917 17.0104 5.3125 16.2188C6.14583 15.4271 7.1875 15.0208 8.4375 15H11.5625ZM5.5625 18.5H14.4062C14.2396 17.9167 13.8958 17.4375 13.375 17.0625C12.8542 16.7083 12.25 16.5208 11.5625 16.5H8.40625C7.71875 16.5208 7.11458 16.7083 6.59375 17.0625C6.09375 17.4375 5.75 17.9167 5.5625 18.5ZM17.25 10C18.0208 10.0208 18.6667 10.3021 19.1875 10.8438C19.7083 11.4062 19.9792 12.0938 20 12.9062C19.9583 13.2604 19.7708 13.4583 19.4375 13.5H13.2188C13.8854 12.7292 14.2292 11.8125 14.25 10.75C14.25 10.625 14.2396 10.5104 14.2188 10.4062C14.1979 10.3646 14.1875 10.3125 14.1875 10.25C14.5417 10.0833 14.9167 10 15.3125 10H17.25ZM5.75 10.75C5.77083 11.8125 6.11458 12.7292 6.78125 13.5H0.5625C0.229167 13.4583 0.0416667 13.2604 0 12.9062C0.0208333 12.0938 0.291667 11.4062 0.8125 10.8438C1.33333 10.3021 1.97917 10.0208 2.75 10H4.6875C5.08333 10 5.45833 10.0833 5.8125 10.25C5.79167 10.2917 5.78125 10.3333 5.78125 10.375C5.76042 10.5 5.75 10.625 5.75 10.75ZM4 9C3.29167 8.97917 2.69792 8.73958 2.21875 8.28125C1.76042 7.80208 1.52083 7.20833 1.5 6.5C1.52083 5.79167 1.76042 5.19792 2.21875 4.71875C2.69792 4.26042 3.29167 4.02083 4 4C4.70833 4.02083 5.30208 4.26042 5.78125 4.71875C6.23958 5.19792 6.47917 5.79167 6.5 6.5C6.47917 7.20833 6.23958 7.80208 5.78125 8.28125C5.30208 8.73958 4.70833 8.97917 4 9Z" fill="#4D4D4D"/>
</svg>
