<svg width="20" height="16" viewBox="0 0 20 16" fill="none" xmlns="http://www.w3.org/2000/svg">
<path d="M10 10C9.08333 9.97917 8.3125 9.66667 7.6875 9.0625C7.08333 8.4375 6.78125 7.66667 6.78125 6.75C6.80208 5.83333 7.11458 5.0625 7.71875 4.4375C8.32292 3.83333 9.08333 3.52083 10 3.5C10.8958 3.52083 11.6562 3.83333 12.2812 4.4375C12.8854 5.0625 13.1979 5.83333 13.2188 6.75C13.1979 7.66667 12.8854 8.4375 12.2812 9.0625C11.6771 9.66667 10.9167 9.97917 10 10ZM10 5C9.5 5.02083 9.08333 5.1875 8.75 5.5C8.4375 5.83333 8.27083 6.25 8.25 6.75C8.27083 7.25 8.4375 7.66667 8.75 8C9.08333 8.3125 9.5 8.47917 10 8.5C10.5 8.47917 10.9062 8.3125 11.2188 8C11.5521 7.66667 11.7292 7.25 11.75 6.75C11.7292 6.25 11.5521 5.83333 11.2188 5.5C10.9062 5.1875 10.5 5.02083 10 5ZM16 5C15.2917 4.97917 14.6979 4.73958 14.2188 4.28125C13.7604 3.80208 13.5208 3.20833 13.5 2.5C13.5208 1.79167 13.7604 1.19792 14.2188 0.71875C14.6979 0.260417 15.2917 0.0208333 16 0C16.7083 0.0208333 17.3021 0.260417 17.7812 0.71875C18.2396 1.19792 18.4792 1.79167 18.5 2.5C18.4792 3.20833 18.2396 3.80208 17.7812 4.28125C17.3021 4.73958 16.7083 4.97917 16 5ZM11.5625 11C12.8125 11.0208 13.8542 11.4271 14.6875 12.2188C15.5208 13.0104 15.9583 13.9896 16 15.1562C16 15.4062 15.9167 15.6042 15.75 15.75C15.5833 15.9167 15.375 16 15.125 16H4.875C4.625 16 4.41667 15.9167 4.25 15.75C4.08333 15.6042 4 15.4062 4 15.1562C4.04167 13.9896 4.47917 13.0104 5.3125 12.2188C6.14583 11.4271 7.1875 11.0208 8.4375 11H11.5625ZM5.5625 14.5H14.4062C14.2396 13.9167 13.8958 13.4375 13.375 13.0625C12.8542 12.7083 12.25 12.5208 11.5625 12.5H8.40625C7.71875 12.5208 7.11458 12.7083 6.59375 13.0625C6.09375 13.4375 5.75 13.9167 5.5625 14.5ZM17.25 6C18.0208 6.02083 18.6667 6.30208 19.1875 6.84375C19.7083 7.40625 19.9792 8.09375 20 8.90625C19.9583 9.26042 19.7708 9.45833 19.4375 9.5H13.2188C13.8854 8.72917 14.2292 7.8125 14.25 6.75C14.25 6.625 14.2396 6.51042 14.2188 6.40625C14.1979 6.36458 14.1875 6.3125 14.1875 6.25C14.5417 6.08333 14.9167 6 15.3125 6H17.25ZM5.75 6.75C5.77083 7.8125 6.11458 8.72917 6.78125 9.5H0.5625C0.229167 9.45833 0.0416667 9.26042 0 8.90625C0.0208333 8.09375 0.291667 7.40625 0.8125 6.84375C1.33333 6.30208 1.97917 6.02083 2.75 6H4.6875C5.08333 6 5.45833 6.08333 5.8125 6.25C5.79167 6.29167 5.78125 6.33333 5.78125 6.375C5.76042 6.5 5.75 6.625 5.75 6.75ZM4 5C3.29167 4.97917 2.69792 4.73958 2.21875 4.28125C1.76042 3.80208 1.52083 3.20833 1.5 2.5C1.52083 1.79167 1.76042 1.19792 2.21875 0.71875C2.69792 0.260417 3.29167 0.0208333 4 0C4.70833 0.0208333 5.30208 0.260417 5.78125 0.71875C6.23958 1.19792 6.47917 1.79167 6.5 2.5C6.47917 3.20833 6.23958 3.80208 5.78125 4.28125C5.30208 4.73958 4.70833 4.97917 4 5Z" fill="#4D4D4D"/>
</svg>
