<svg width="20" height="14" viewBox="0 0 20 14" fill="none" xmlns="http://www.w3.org/2000/svg">
<path d="M6 7C6.02083 5.875 6.40625 4.92708 7.15625 4.15625C7.92708 3.40625 8.875 3.02083 10 3C11.125 3.02083 12.0729 3.40625 12.8438 4.15625C13.5938 4.92708 13.9792 5.875 14 7C13.9792 8.125 13.5938 9.07292 12.8438 9.84375C12.0729 10.5938 11.125 10.9792 10 11C8.875 10.9792 7.92708 10.5938 7.15625 9.84375C6.40625 9.07292 6.02083 8.125 6 7ZM10 9.5C10.7083 9.47917 11.3021 9.23958 11.7812 8.78125C12.2396 8.30208 12.4792 7.70833 12.5 7C12.4792 6.29167 12.2396 5.69792 11.7812 5.21875C11.3021 4.76042 10.7083 4.52083 10 4.5C10 4.5 9.98958 4.5 9.96875 4.5C9.94792 4.5 9.92708 4.5 9.90625 4.5C9.96875 4.66667 10 4.83333 10 5C9.97917 5.5625 9.78125 6.03125 9.40625 6.40625C9.03125 6.78125 8.5625 6.97917 8 7C7.83333 7 7.66667 6.96875 7.5 6.90625C7.5 6.92708 7.5 6.94792 7.5 6.96875C7.52083 7.69792 7.76042 8.29167 8.21875 8.75C8.69792 9.22917 9.29167 9.47917 10 9.5ZM3.96875 2.53125C4.71875 1.82292 5.59375 1.22917 6.59375 0.75C7.59375 0.270833 8.72917 0.0208333 10 0C11.2708 0.0208333 12.4062 0.270833 13.4062 0.75C14.4062 1.22917 15.2812 1.82292 16.0312 2.53125C16.7604 3.21875 17.3646 3.92708 17.8438 4.65625C18.3229 5.38542 18.6875 6.04167 18.9375 6.625C19.0208 6.875 19.0208 7.125 18.9375 7.375C18.6875 7.95833 18.3229 8.61458 17.8438 9.34375C17.3646 10.0521 16.7604 10.7604 16.0312 11.4688C15.2812 12.1771 14.4062 12.7708 13.4062 13.25C12.4062 13.7292 11.2708 13.9792 10 14C8.72917 13.9792 7.59375 13.7292 6.59375 13.25C5.59375 12.7708 4.71875 12.1771 3.96875 11.4688C3.23958 10.7604 2.63542 10.0521 2.15625 9.34375C1.67708 8.61458 1.3125 7.95833 1.0625 7.375C0.979167 7.125 0.979167 6.875 1.0625 6.625C1.3125 6.04167 1.67708 5.38542 2.15625 4.65625C2.63542 3.92708 3.23958 3.21875 3.96875 2.53125ZM10 1.5C8.97917 1.52083 8.05208 1.72917 7.21875 2.125C6.38542 2.5 5.64583 3 5 3.625C4.39583 4.1875 3.88542 4.77083 3.46875 5.375C3.07292 5.95833 2.76042 6.5 2.53125 7C2.76042 7.47917 3.07292 8.02083 3.46875 8.625C3.88542 9.22917 4.39583 9.8125 5 10.375C5.64583 11 6.38542 11.5 7.21875 11.875C8.05208 12.2708 8.97917 12.4792 10 12.5C11.0208 12.4792 11.9479 12.2708 12.7812 11.875C13.6146 11.5 14.3542 11 15 10.375C15.6042 9.8125 16.1042 9.22917 16.5 8.625C16.9167 8.02083 17.2396 7.47917 17.4688 7C17.2396 6.5 16.9167 5.95833 16.5 5.375C16.1042 4.77083 15.6042 4.1875 15 3.625C14.3542 3 13.6146 2.5 12.7812 2.125C11.9479 1.72917 11.0208 1.52083 10 1.5Z" fill="#1A1A1A"/>
</svg>
