<svg width="18" height="24" viewBox="0 0 18 24" fill="none" xmlns="http://www.w3.org/2000/svg">
<path d="M16.8125 17.0312C17.0625 17.4896 17.0625 17.9271 16.8125 18.3438C16.5833 18.7604 16.1979 18.9792 15.6562 19H2.34375C1.80208 18.9792 1.41667 18.7604 1.1875 18.3438C0.9375 17.9271 0.927083 17.4896 1.15625 17.0312L7.8125 5.65625C8.125 5.21875 8.52083 5 9 5C9.47917 5 9.86458 5.21875 10.1562 5.65625L16.8125 17.0312ZM2.65625 17.5H15.3438L8.96875 6.65625L2.65625 17.5ZM9 14.5312C9.27083 14.5312 9.5 14.625 9.6875 14.8125C9.875 15 9.96875 15.2396 9.96875 15.5312C9.96875 15.8021 9.875 16.0312 9.6875 16.2188C9.5 16.4062 9.27083 16.5 9 16.5C8.72917 16.5 8.5 16.4062 8.3125 16.2188C8.125 16.0312 8.03125 15.8021 8.03125 15.5312C8.03125 15.2396 8.125 15 8.3125 14.8125C8.5 14.625 8.72917 14.5312 9 14.5312ZM8.25 9.75C8.29167 9.29167 8.54167 9.04167 9 9C9.45833 9.04167 9.70833 9.29167 9.75 9.75V12.75C9.70833 13.2083 9.45833 13.4583 9 13.5C8.54167 13.4583 8.29167 13.2083 8.25 12.75V9.75Z" fill="#4D4D4D"/>
</svg>
